<svg version="1.1" preserveAspectRatio="none" xmlns="http://www.w3.org/2000/svg" width="500" height="500" viewBox="0 0 500 500"><rect width="100%" height="100%" fill="#070707" fill-opacity="1"/><svg viewBox="3.6885 2.2058 515.7016 319.2424" width="333" height="206.1419223830215" x="83.5px" y="146.929px" xmlns="http://www.w3.org/2000/svg" xmlns:xlink="http://www.w3.org/1999/xlink" preserveAspectRatio="none"><defs></defs><style>.companyName {fill:#F7DC5F;fill-opacity:1;}.icon1 {fill:#F7DC5F;fill-opacity:1;}.icon2 {fill:#8C7848;fill-opacity:1;}.icon3 {fill:#534538;fill-opacity:1;}.icon3-str {stroke:#534538;stroke-opacity:1;}.text {fill:#F7DC5F;fill-opacity:1;}</style><g opacity="1" transform="rotate(0 3.6885 303.4482)">
<svg width="515.7016" height="18" x="3.6885" y="303.4482" version="1.1" preserveAspectRatio="none" viewBox="1.88 -28 1038.1599999999999 36.239999999999995">
  <g transform="matrix(1 0 0 1 0 0)" class="text"><path id="id-6izo4zJp47" d="M5.44-26.48L4.68-17.72L2.64-17.72L1.88-26.48L5.44-26.48ZM10.80-26.48L10.04-17.72L8-17.72L7.24-26.48L10.80-26.48Z M39.40-23.60L22.92-23.60L22.92-14.72L37.64-14.72L37.64-11.80L22.92-11.80L22.92-2.88L39.40-2.88L39.40 0L19.92 0L19.92-26.48L39.40-26.48L39.40-23.60Z M50.40-20L50.40-16.96Q52.40-20.32 56.48-20.32L56.48-20.32Q58.48-20.32 60.18-19.26Q61.88-18.20 62.84-16.28L62.84-16.28Q64.20-18.80 67.08-19.88L67.08-19.88Q68.24-20.32 69.70-20.32Q71.16-20.32 72.50-19.74Q73.84-19.16 74.88-18.08L74.88-18.08Q77.12-15.68 77.12-12.08L77.12-12.08L77.12 0L74.12 0L74.12-12Q74.12-14.48 72.72-16.08L72.72-16.08Q71.32-17.60 69.16-17.60L69.16-17.60Q66.88-17.60 65.36-16.12L65.36-16.12Q63.76-14.60 63.76-11.96L63.76-11.96L63.76 0L60.76 0L60.76-12Q60.76-14.48 59.36-16.08L59.36-16.08Q57.96-17.60 55.80-17.60L55.80-17.60Q53.52-17.60 52-16.12L52-16.12Q50.40-14.60 50.40-11.96L50.40-11.96L50.40 0L47.40 0L47.40-20L50.40-20Z M89.12-20L89.12-16.80Q91.52-20.32 96.28-20.32L96.28-20.32Q100.60-20.32 103.28-17.32L103.28-17.32Q105.96-14.36 105.96-10L105.96-10Q105.96-5.64 103.28-2.68L103.28-2.68Q100.60 0.32 96.08 0.32Q91.56 0.32 89.12-3.24L89.12-3.24L89.12 7.92L86.12 7.92L86.12-20L89.12-20ZM95.88-17.60L95.88-17.60Q92.64-17.60 90.76-15.36L90.76-15.36Q88.96-13.24 88.96-10L88.96-10Q88.96-6.76 90.76-4.64L90.76-4.64Q92.64-2.40 95.88-2.40L95.88-2.40Q99.08-2.40 101.08-4.64L101.08-4.64Q102.96-6.76 102.96-10L102.96-10Q102.96-13.24 101.08-15.36L101.08-15.36Q99.08-17.60 95.88-17.60Z M122.56-20.32L122.56-20.32Q127.04-20.32 129.84-17.32L129.84-17.32Q132.48-14.44 132.48-10L132.48-10Q132.48-5.56 129.84-2.68L129.84-2.68Q127.04 0.32 122.56 0.32L122.56 0.32Q118.08 0.32 115.28-2.68L115.28-2.68Q112.64-5.56 112.64-10L112.64-10Q112.64-14.44 115.28-17.32L115.28-17.32Q118.08-20.32 122.56-20.32ZM122.56-2.40L122.56-2.40Q125.80-2.40 127.68-4.64L127.68-4.64Q129.48-6.76 129.48-10L129.48-10Q129.48-13.24 127.68-15.36L127.68-15.36Q125.80-17.60 122.56-17.60L122.56-17.60Q119.32-17.60 117.44-15.36L117.44-15.36Q115.64-13.24 115.64-10L115.64-10Q115.64-6.76 117.44-4.64L117.44-4.64Q119.32-2.40 122.56-2.40Z M157.76 0L152.76-15.96L147.76 0L144.32 0L138.04-20L141.24-20L146.04-3.72L151.12-20L154.40-20L159.48-3.72L164.28-20L167.48-20L161.20 0L157.76 0Z M183.20-2.40L183.20-2.40Q187.24-2.40 189-5.76L189-5.76L192.28-5.76Q191.24-3.04 188.98-1.36Q186.72 0.32 183.16 0.32L183.16 0.32Q178.64 0.32 175.80-2.68L175.80-2.68Q173.04-5.60 173.04-10L173.04-10Q173.04-14.44 175.68-17.32L175.68-17.32Q178.48-20.32 182.96-20.32L182.96-20.32Q187.44-20.32 190.24-17.32L190.24-17.32Q192.88-14.44 192.88-10L192.88-10L192.88-8.80L176.12-8.80Q176.44-6.04 178.32-4.24L178.32-4.24Q180.24-2.40 183.20-2.40ZM182.96-17.60L182.96-17.60Q180.20-17.60 178.32-15.88L178.32-15.88Q176.56-14.24 176.16-11.60L176.16-11.60L189.76-11.60Q189.36-14.24 187.60-15.88L187.60-15.88Q185.72-17.60 182.96-17.60Z M210.92-20.32L211.12-20.32L211.12-17.32L210.76-17.32Q207.52-17.32 205.48-14.72L205.48-14.72Q203.56-12.24 203.56-8.80L203.56-8.80L203.56 0L200.56 0L200.56-20L203.56-20L203.56-15.08Q204.52-18.20 207.72-19.68L207.72-19.68Q209.04-20.32 210.92-20.32L210.92-20.32Z M218.36 0L218.36-20L221.36-20L221.36 0L218.36 0ZM218.24-27.28L221.48-27.28L221.48-23.36L218.24-23.36L218.24-27.28Z M230.56-20L233.56-20L233.56-16.88Q234.64-18.32 236.20-19.32Q237.76-20.32 239.76-20.32Q241.76-20.32 243.20-19.76Q244.64-19.20 245.72-18.08L245.72-18.08Q248.20-15.64 248.20-11.64L248.20-11.64L248.20 0L245.20 0L245.20-11.56Q245.20-14.32 243.64-15.96Q242.08-17.60 239.60-17.60L239.60-17.60Q237.08-17.60 235.32-15.92L235.32-15.92Q233.56-14.20 233.56-11.52L233.56-11.52L233.56 0L230.56 0L230.56-20Z M272.80-16.80L272.80-16.80L272.80-20L275.80-20L275.80-0.60Q275.80 3.72 273.34 5.98Q270.88 8.24 266.72 8.24Q262.56 8.24 260.22 6.64Q257.88 5.04 257.04 2.40L257.04 2.40L260.36 2.40Q261.64 5.52 266.20 5.52L266.20 5.52Q269.68 5.52 271.24 3.92Q272.80 2.32 272.80-0.80L272.80-0.80L272.80-3.56Q270.36 0 265.64 0L265.64 0Q261.32 0 258.60-2.96L258.60-2.96Q255.96-5.84 255.96-10.16L255.96-10.16Q255.96-14.48 258.60-17.36L258.60-17.36Q261.32-20.32 265.86-20.32Q270.40-20.32 272.80-16.80ZM266.04-2.72L266.04-2.72Q267.68-2.72 268.96-3.30Q270.24-3.88 271.16-4.88L271.16-4.88Q272.96-6.96 272.96-10.16L272.96-10.16Q272.96-13.36 271.16-15.44L271.16-15.44Q269.20-17.60 266.04-17.60L266.04-17.60Q262.80-17.60 260.84-15.44L260.84-15.44Q258.96-13.32 258.96-10.16L258.96-10.16Q258.96-7 260.84-4.88L260.84-4.88Q262.80-2.72 266.04-2.72Z M309-10.48L309 0L306 0L306-10.48L294.88-26.48L298.52-26.48L307.48-13.60L316.44-26.48L320.08-26.48L309-10.48Z M332.08-20.32L332.08-20.32Q336.56-20.32 339.36-17.32L339.36-17.32Q342.00-14.44 342.00-10L342.00-10Q342.00-5.56 339.36-2.68L339.36-2.68Q336.56 0.32 332.08 0.32L332.08 0.32Q327.60 0.32 324.80-2.68L324.80-2.68Q322.16-5.56 322.16-10L322.16-10Q322.16-14.44 324.80-17.32L324.80-17.32Q327.60-20.32 332.08-20.32ZM332.08-2.40L332.08-2.40Q335.32-2.40 337.20-4.64L337.20-4.64Q339.00-6.76 339.00-10L339.00-10Q339.00-13.24 337.20-15.36L337.20-15.36Q335.32-17.60 332.08-17.60L332.08-17.60Q328.84-17.60 326.96-15.36L326.96-15.36Q325.16-13.24 325.16-10L325.16-10Q325.16-6.76 326.96-4.64L326.96-4.64Q328.84-2.40 332.08-2.40Z M367.40 0L364.40 0L364.40-3.12Q363.32-1.68 361.76-0.68Q360.20 0.32 358.20 0.32Q356.20 0.32 354.76-0.24Q353.32-0.80 352.24-1.92L352.24-1.92Q349.76-4.36 349.76-8.36L349.76-8.36L349.76-20L352.76-20L352.76-8.44Q352.76-5.68 354.32-4.04Q355.88-2.40 358.36-2.40L358.36-2.40Q360.88-2.40 362.64-4.08L362.64-4.08Q364.40-5.80 364.40-8.48L364.40-8.48L364.40-20L367.40-20L367.40 0Z M386.96-20.32L387.16-20.32L387.16-17.32L386.80-17.32Q383.56-17.32 381.52-14.72L381.52-14.72Q379.60-12.24 379.60-8.80L379.60-8.80L379.60 0L376.60 0L376.60-20L379.60-20L379.60-15.08Q380.56-18.20 383.76-19.68L383.76-19.68Q385.08-20.32 386.96-20.32L386.96-20.32Z M407.56-26.48L418.72-26.48Q421.08-26.48 423.28-25.58Q425.48-24.68 427.16-22.96L427.16-22.96Q430.88-19.16 430.88-13.24L430.88-13.24Q430.88-7.32 427.16-3.52L427.16-3.52Q425.48-1.80 423.28-0.90Q421.08 0 418.72 0L418.72 0L407.56 0L407.56-26.48ZM410.56-2.84L418.60-2.84Q422.76-2.84 425.36-5.92L425.36-5.92Q427.88-8.88 427.88-13.24L427.88-13.24Q427.88-17.60 425.36-20.56L425.36-20.56Q422.76-23.64 418.60-23.64L418.60-23.64L410.56-23.64L410.56-2.84Z M439.08 0L439.08-20L442.08-20L442.08 0L439.08 0ZM438.96-27.28L442.20-27.28L442.20-23.36L438.96-23.36L438.96-27.28Z M466.88-16.80L466.88-16.80L466.88-20L469.88-20L469.88-0.60Q469.88 3.72 467.42 5.98Q464.96 8.24 460.80 8.24Q456.64 8.24 454.30 6.64Q451.96 5.04 451.12 2.40L451.12 2.40L454.44 2.40Q455.72 5.52 460.28 5.52L460.28 5.52Q463.76 5.52 465.32 3.92Q466.88 2.32 466.88-0.80L466.88-0.80L466.88-3.56Q464.44 0 459.72 0L459.72 0Q455.40 0 452.68-2.96L452.68-2.96Q450.04-5.84 450.04-10.16L450.04-10.16Q450.04-14.48 452.68-17.36L452.68-17.36Q455.40-20.32 459.94-20.32Q464.48-20.32 466.88-16.80ZM460.12-2.72L460.12-2.72Q461.76-2.72 463.04-3.30Q464.32-3.88 465.24-4.88L465.24-4.88Q467.04-6.96 467.04-10.16L467.04-10.16Q467.04-13.36 465.24-15.44L465.24-15.44Q463.28-17.60 460.12-17.60L460.12-17.60Q456.88-17.60 454.92-15.44L454.92-15.44Q453.04-13.32 453.04-10.16L453.04-10.16Q453.04-7 454.92-4.88L454.92-4.88Q456.88-2.72 460.12-2.72Z M479.08 0L479.08-20L482.08-20L482.08 0L479.08 0ZM478.96-27.28L482.20-27.28L482.20-23.36L478.96-23.36L478.96-27.28Z M496.44 0L493.44 0L493.44-17.36L489.36-17.36L489.36-20L493.44-20L493.44-27.16L496.44-27.16L496.44-20L501.04-20L501.04-17.36L496.44-17.36L496.44 0Z M523.52 0L523.52-3.20Q521.12 0.32 516.36 0.32L516.36 0.32Q512.04 0.32 509.32-2.68L509.32-2.68Q506.68-5.64 506.68-10L506.68-10Q506.68-14.36 509.32-17.32L509.32-17.32Q512.04-20.32 516.56-20.32Q521.08-20.32 523.52-16.76L523.52-16.76L523.52-20L526.52-20L526.52 0L523.52 0ZM516.76-2.40L516.76-2.40Q520.00-2.40 521.88-4.64L521.88-4.64Q523.68-6.76 523.68-10L523.68-10Q523.68-13.24 521.88-15.36L521.88-15.36Q520.00-17.60 516.76-17.60L516.76-17.60Q513.56-17.60 511.56-15.36L511.56-15.36Q509.68-13.24 509.68-10L509.68-10Q509.68-6.76 511.56-4.64L511.56-4.64Q513.56-2.40 516.76-2.40Z M538.72-28L538.72 0L535.72 0L535.72-28L538.72-28Z M580.20-23.60L564.08-23.60L564.08-14.40L578.44-14.40L578.44-11.48L564.08-11.48L564.08 0L561.08 0L561.08-26.48L580.20-26.48L580.20-23.60Z M595.84-20.32L595.84-20.32Q600.32-20.32 603.12-17.32L603.12-17.32Q605.76-14.44 605.76-10L605.76-10Q605.76-5.56 603.12-2.68L603.12-2.68Q600.32 0.32 595.84 0.32L595.84 0.32Q591.36 0.32 588.56-2.68L588.56-2.68Q585.92-5.56 585.92-10L585.92-10Q585.92-14.44 588.56-17.32L588.56-17.32Q591.36-20.32 595.84-20.32ZM595.84-2.40L595.84-2.40Q599.08-2.40 600.96-4.64L600.96-4.64Q602.76-6.76 602.76-10L602.76-10Q602.76-13.24 600.96-15.36L600.96-15.36Q599.08-17.60 595.84-17.60L595.84-17.60Q592.60-17.60 590.72-15.36L590.72-15.36Q588.92-13.24 588.92-10L588.92-10Q588.92-6.76 590.72-4.64L590.72-4.64Q592.60-2.40 595.84-2.40Z M624.08-20.32L624.28-20.32L624.28-17.32L623.92-17.32Q620.68-17.32 618.64-14.72L618.64-14.72Q616.72-12.24 616.72-8.80L616.72-8.80L616.72 0L613.72 0L613.72-20L616.72-20L616.72-15.08Q617.68-18.20 620.88-19.68L620.88-19.68Q622.20-20.32 624.08-20.32L624.08-20.32Z M636.68 0L633.68 0L633.68-17.36L629.60-17.36L629.60-20L633.68-20L633.68-27.16L636.68-27.16L636.68-20L641.28-20L641.28-17.36L636.68-17.36L636.68 0Z M666 0L663 0L663-3.12Q661.92-1.68 660.36-0.68Q658.80 0.32 656.80 0.32Q654.80 0.32 653.36-0.24Q651.92-0.80 650.84-1.92L650.84-1.92Q648.36-4.36 648.36-8.36L648.36-8.36L648.36-20L651.36-20L651.36-8.44Q651.36-5.68 652.92-4.04Q654.48-2.40 656.96-2.40L656.96-2.40Q659.48-2.40 661.24-4.08L661.24-4.08Q663-5.80 663-8.48L663-8.48L663-20L666-20L666 0Z M675.20-20L678.20-20L678.20-16.88Q679.28-18.32 680.84-19.32Q682.40-20.32 684.40-20.32Q686.40-20.32 687.84-19.76Q689.28-19.20 690.36-18.08L690.36-18.08Q692.84-15.64 692.84-11.64L692.84-11.64L692.84 0L689.84 0L689.84-11.56Q689.84-14.32 688.28-15.96Q686.72-17.60 684.24-17.60L684.24-17.60Q681.72-17.60 679.96-15.92L679.96-15.92Q678.20-14.20 678.20-11.52L678.20-11.52L678.20 0L675.20 0L675.20-20Z M710.76-2.40L710.76-2.40Q714.80-2.40 716.56-5.76L716.56-5.76L719.84-5.76Q718.80-3.04 716.54-1.36Q714.28 0.32 710.72 0.32L710.72 0.32Q706.20 0.32 703.36-2.68L703.36-2.68Q700.60-5.60 700.60-10L700.60-10Q700.60-14.44 703.24-17.32L703.24-17.32Q706.04-20.32 710.52-20.32L710.52-20.32Q715-20.32 717.80-17.32L717.80-17.32Q720.44-14.44 720.44-10L720.44-10L720.44-8.80L703.68-8.80Q704-6.04 705.88-4.24L705.88-4.24Q707.80-2.40 710.76-2.40ZM710.52-17.60L710.52-17.60Q707.76-17.60 705.88-15.88L705.88-15.88Q704.12-14.24 703.72-11.60L703.72-11.60L717.32-11.60Q716.92-14.24 715.16-15.88L715.16-15.88Q713.28-17.60 710.52-17.60Z M727.64-4.08L731.52-4.08L731.52 0L727.64 0L727.64-4.08ZM727.64-20L731.52-20L731.52-15.92L727.64-15.92L727.64-20Z M772.20-26.48L772.20-23.60L762.96-23.60L762.96 0L759.96 0L759.96-23.60L750.72-23.60L750.72-26.48L772.20-26.48Z M787-20.32L787.20-20.32L787.20-17.32L786.84-17.32Q783.60-17.32 781.56-14.72L781.56-14.72Q779.64-12.24 779.64-8.80L779.64-8.80L779.64 0L776.64 0L776.64-20L779.64-20L779.64-15.08Q780.60-18.20 783.80-19.68L783.80-19.68Q785.12-20.32 787-20.32L787-20.32Z M809.52 0L809.52-3.20Q807.12 0.32 802.36 0.32L802.36 0.32Q798.04 0.32 795.32-2.68L795.32-2.68Q792.68-5.64 792.68-10L792.68-10Q792.68-14.36 795.32-17.32L795.32-17.32Q798.04-20.32 802.56-20.32Q807.08-20.32 809.52-16.76L809.52-16.76L809.52-20L812.52-20L812.52 0L809.52 0ZM802.76-2.40L802.76-2.40Q806.00-2.40 807.88-4.64L807.88-4.64Q809.68-6.76 809.68-10L809.68-10Q809.68-13.24 807.88-15.36L807.88-15.36Q806.00-17.60 802.76-17.60L802.76-17.60Q799.56-17.60 797.56-15.36L797.56-15.36Q795.68-13.24 795.68-10L795.68-10Q795.68-6.76 797.56-4.64L797.56-4.64Q799.56-2.40 802.76-2.40Z M837.32 0L837.32-3.20Q834.92 0.32 830.16 0.32L830.16 0.32Q825.84 0.32 823.12-2.68L823.12-2.68Q820.48-5.64 820.48-10L820.48-10Q820.48-14.36 823.12-17.32L823.12-17.32Q825.84-20.32 830.36-20.32Q834.88-20.32 837.32-16.76L837.32-16.76L837.32-28L840.32-28L840.32 0L837.32 0ZM830.56-2.40L830.56-2.40Q833.80-2.40 835.68-4.64L835.68-4.64Q837.48-6.76 837.48-10L837.48-10Q837.48-13.24 835.68-15.36L835.68-15.36Q833.80-17.60 830.56-17.60L830.56-17.60Q827.36-17.60 825.36-15.36L825.36-15.36Q823.48-13.24 823.48-10L823.48-10Q823.48-6.76 825.36-4.64L825.36-4.64Q827.36-2.40 830.56-2.40Z M858.44-2.40L858.44-2.40Q862.48-2.40 864.24-5.76L864.24-5.76L867.52-5.76Q866.48-3.04 864.22-1.36Q861.96 0.32 858.40 0.32L858.40 0.32Q853.88 0.32 851.04-2.68L851.04-2.68Q848.28-5.60 848.28-10L848.28-10Q848.28-14.44 850.92-17.32L850.92-17.32Q853.72-20.32 858.20-20.32L858.20-20.32Q862.68-20.32 865.48-17.32L865.48-17.32Q868.12-14.44 868.12-10L868.12-10L868.12-8.80L851.36-8.80Q851.68-6.04 853.56-4.24L853.56-4.24Q855.48-2.40 858.44-2.40ZM858.20-17.60L858.20-17.60Q855.44-17.60 853.56-15.88L853.56-15.88Q851.80-14.24 851.40-11.60L851.40-11.60L865.00-11.60Q864.60-14.24 862.84-15.88L862.84-15.88Q860.96-17.60 858.20-17.60Z M900.76-2.60L900.76-2.60Q903.60-2.60 905.74-4.04Q907.88-5.48 908.92-7.92L908.92-7.92L912.08-7.92Q910.76-4.16 907.72-2L907.72-2Q904.48 0.32 900.08 0.32L900.08 0.32Q894.28 0.32 890.68-3.64L890.68-3.64Q887.28-7.44 887.28-13.24Q887.28-19.04 890.68-22.84L890.68-22.84Q894.28-26.80 900.08-26.80L900.08-26.80Q904.48-26.80 907.72-24.48L907.72-24.48Q910.76-22.32 912.08-18.56L912.08-18.56L908.92-18.56Q907.88-21 905.74-22.44Q903.60-23.88 900.76-23.88Q897.92-23.88 896.04-23.06Q894.16-22.24 892.88-20.80L892.88-20.80Q890.28-17.88 890.28-13.24L890.28-13.24Q890.28-8.60 892.88-5.68L892.88-5.68Q895.60-2.60 900.76-2.60Z M930.28-20.32L930.48-20.32L930.48-17.32L930.12-17.32Q926.88-17.32 924.84-14.72L924.84-14.72Q922.92-12.24 922.92-8.80L922.92-8.80L922.92 0L919.92 0L919.92-20L922.92-20L922.92-15.08Q923.88-18.20 927.08-19.68L927.08-19.68Q928.40-20.32 930.28-20.32L930.28-20.32Z M954.88-20L943.04 7.92L939.80 7.92L943.44-0.28L935.28-20L938.60-20L945.04-3.60L951.60-20L954.88-20Z M964.60-20L964.60-16.80Q967.00-20.32 971.76-20.32L971.76-20.32Q976.08-20.32 978.76-17.32L978.76-17.32Q981.44-14.36 981.44-10L981.44-10Q981.44-5.64 978.76-2.68L978.76-2.68Q976.08 0.32 971.56 0.32Q967.04 0.32 964.60-3.24L964.60-3.24L964.60 7.92L961.60 7.92L961.60-20L964.60-20ZM971.36-17.60L971.36-17.60Q968.12-17.60 966.24-15.36L966.24-15.36Q964.44-13.24 964.44-10L964.44-10Q964.44-6.76 966.24-4.64L966.24-4.64Q968.12-2.40 971.36-2.40L971.36-2.40Q974.56-2.40 976.56-4.64L976.56-4.64Q978.44-6.76 978.44-10L978.44-10Q978.44-13.24 976.56-15.36L976.56-15.36Q974.56-17.60 971.36-17.60Z M994.16 0L991.16 0L991.16-17.36L987.08-17.36L987.08-20L991.16-20L991.16-27.16L994.16-27.16L994.16-20L998.76-20L998.76-17.36L994.16-17.36L994.16 0Z M1014.32-20.32L1014.32-20.32Q1018.80-20.32 1021.60-17.32L1021.60-17.32Q1024.24-14.44 1024.24-10L1024.24-10Q1024.24-5.56 1021.60-2.68L1021.60-2.68Q1018.80 0.32 1014.32 0.32L1014.32 0.32Q1009.84 0.32 1007.04-2.68L1007.04-2.68Q1004.40-5.56 1004.40-10L1004.40-10Q1004.40-14.44 1007.04-17.32L1007.04-17.32Q1009.84-20.32 1014.32-20.32ZM1014.32-2.40L1014.32-2.40Q1017.56-2.40 1019.44-4.64L1019.44-4.64Q1021.24-6.76 1021.24-10L1021.24-10Q1021.24-13.24 1019.44-15.36L1019.44-15.36Q1017.56-17.60 1014.32-17.60L1014.32-17.60Q1011.08-17.60 1009.20-15.36L1009.20-15.36Q1007.40-13.24 1007.40-10L1007.40-10Q1007.40-6.76 1009.20-4.64L1009.20-4.64Q1011.08-2.40 1014.32-2.40Z M1034.68-26.48L1033.92-17.72L1031.88-17.72L1031.12-26.48L1034.68-26.48ZM1040.04-26.48L1039.28-17.72L1037.24-17.72L1036.48-26.48L1040.04-26.48Z"/></g>
</svg>
</g><g opacity="1" transform="rotate(0 64.618 261.4482)">
<svg width="393.8426" height="24" x="64.618" y="261.4482" version="1.1" preserveAspectRatio="none" viewBox="2.16 -31.2 518.5600000000001 31.6">
  <g transform="matrix(1 0 0 1 0 0)" class="companyName"><path id="id-D6z1nYkh17" d="M2.76 0L2.16-10.20L3.72-10.20Q4.28-6.40 6.76-4.22Q9.24-2.04 12.88-2.04L12.88-2.04Q14.36-2.04 15.60-2.40Q16.84-2.76 17.72-3.42Q18.60-4.08 19.08-4.98Q19.56-5.88 19.56-7L19.56-7Q19.56-7.96 19.26-8.66Q18.96-9.36 18.12-10.02Q17.28-10.68 15.82-11.36Q14.36-12.04 12.04-12.92L12.04-12.92Q7.36-14.72 5.12-17.10Q2.88-19.48 2.88-22.72L2.88-22.72Q2.88-24.60 3.60-26.16Q4.32-27.72 5.62-28.84Q6.92-29.96 8.74-30.58Q10.56-31.20 12.76-31.20L12.76-31.20Q14.80-31.20 16.60-30.56Q18.40-29.92 20.16-28.64L20.16-28.64L20.88-30.64L21.84-30.64L22.28-22L20.72-22Q19.76-25.28 17.72-27.02Q15.68-28.76 13-28.76L13-28.76Q10.52-28.76 8.98-27.54Q7.44-26.32 7.44-24.40L7.44-24.40Q7.44-23.56 7.72-22.90Q8-22.24 8.76-21.64Q9.52-21.04 10.84-20.42Q12.16-19.80 14.24-19.04L14.24-19.04Q17.04-17.96 19.02-16.86Q21-15.76 22.26-14.50Q23.52-13.24 24.12-11.84Q24.72-10.44 24.72-8.76L24.72-8.76Q24.72-6.72 23.84-5.04Q22.96-3.36 21.38-2.16Q19.80-0.96 17.62-0.28Q15.44 0.40 12.80 0.40L12.80 0.40Q10.40 0.40 8.48-0.26Q6.56-0.92 4.52-2.40L4.52-2.40L3.72 0L2.76 0Z M48.76-6.92L47.84-9.32L36.52-9.32Q34.64-5.08 34.64-3.44L34.64-3.44Q34.64-2.24 35.54-1.92Q36.44-1.60 38.24-1.60L38.24-1.60L38.24 0L27.28 0L27.28-1.60Q28.24-1.72 28.94-1.92Q29.64-2.12 30.18-2.48Q30.72-2.84 31.12-3.42Q31.52-4 31.88-4.84L31.88-4.84L42.40-31.20L45.36-31.20L54.92-7.84Q55.76-5.80 56.34-4.64Q56.92-3.48 57.58-2.86Q58.24-2.24 59.10-2Q59.96-1.76 61.32-1.64L61.32-1.64L61.32 0L46.20 0L46.20-1.64Q48.12-1.72 48.96-2.04Q49.80-2.36 49.80-3.32L49.80-3.32Q49.80-3.88 49.52-4.76Q49.24-5.64 48.76-6.92L48.76-6.92ZM42.20-23.84L37.44-11.72L46.96-11.72L42.36-23.84L42.20-23.84Z M91.36-30.80L91.76-22L90.04-22Q89.92-23.96 89.46-25.26Q89-26.56 88.16-27.34Q87.32-28.12 86.12-28.42Q84.92-28.72 83.32-28.72L83.32-28.72Q81.76-28.72 80.82-28.66Q79.88-28.60 79.38-28.46Q78.88-28.32 78.72-28.08Q78.56-27.84 78.56-27.48L78.56-27.48L78.56-6.52Q78.56-5.24 78.74-4.32Q78.92-3.40 79.48-2.82Q80.04-2.24 81.12-1.94Q82.20-1.64 83.96-1.60L83.96-1.60L83.96 0L67.20 0L67.20-1.60Q69-1.64 70.08-1.94Q71.16-2.24 71.74-2.82Q72.32-3.40 72.50-4.32Q72.68-5.24 72.68-6.52L72.68-6.52L72.68-27.48Q72.68-27.84 72.54-28.08Q72.40-28.32 71.96-28.46Q71.52-28.60 70.70-28.66Q69.88-28.72 68.56-28.72L68.56-28.72Q67.12-28.72 65.80-28.58Q64.48-28.44 63.48-27.78Q62.48-27.12 61.86-25.78Q61.24-24.44 61.20-22L61.20-22L59.64-22L60.04-30.80L91.36-30.80Z M112.92-31.20L112.92-31.20Q116.52-31.20 119.64-29.96Q122.76-28.72 125.06-26.56Q127.36-24.40 128.68-21.48Q130-18.56 130-15.16L130-15.16Q130-11.92 128.66-9.08Q127.32-6.24 125.02-4.14Q122.72-2.04 119.60-0.82Q116.48 0.40 112.92 0.40L112.92 0.40Q109.36 0.40 106.24-0.82Q103.12-2.04 100.80-4.14Q98.48-6.24 97.16-9.08Q95.84-11.92 95.84-15.16L95.84-15.16Q95.84-18.56 97.16-21.48Q98.48-24.40 100.78-26.56Q103.08-28.72 106.20-29.96Q109.32-31.20 112.92-31.20ZM112.92-2.20L112.92-2.20Q115.24-2.20 117.12-3.10Q119-4 120.32-5.66Q121.64-7.32 122.34-9.70Q123.04-12.08 123.04-15.04L123.04-15.04Q123.04-18.16 122.34-20.66Q121.64-23.16 120.32-24.94Q119-26.72 117.12-27.66Q115.24-28.60 112.92-28.60L112.92-28.60Q110.56-28.60 108.70-27.66Q106.84-26.72 105.52-24.94Q104.20-23.16 103.50-20.66Q102.80-18.16 102.80-15.04L102.80-15.04Q102.80-12.08 103.50-9.70Q104.20-7.32 105.52-5.66Q106.84-4 108.70-3.10Q110.56-2.20 112.92-2.20Z M136.52 0L135.92-10.20L137.48-10.20Q138.04-6.40 140.52-4.22Q143-2.04 146.64-2.04L146.64-2.04Q148.12-2.04 149.36-2.40Q150.60-2.76 151.48-3.42Q152.36-4.08 152.84-4.98Q153.32-5.88 153.32-7L153.32-7Q153.32-7.96 153.02-8.66Q152.72-9.36 151.88-10.02Q151.04-10.68 149.58-11.36Q148.12-12.04 145.80-12.92L145.80-12.92Q141.12-14.72 138.88-17.10Q136.64-19.48 136.64-22.72L136.64-22.72Q136.64-24.60 137.36-26.16Q138.08-27.72 139.38-28.84Q140.68-29.96 142.50-30.58Q144.32-31.20 146.52-31.20L146.52-31.20Q148.56-31.20 150.36-30.56Q152.16-29.92 153.92-28.64L153.92-28.64L154.64-30.64L155.60-30.64L156.04-22L154.48-22Q153.52-25.28 151.48-27.02Q149.44-28.76 146.76-28.76L146.76-28.76Q144.28-28.76 142.74-27.54Q141.20-26.32 141.20-24.40L141.20-24.40Q141.20-23.56 141.48-22.90Q141.76-22.24 142.52-21.64Q143.28-21.04 144.60-20.42Q145.92-19.80 148-19.04L148-19.04Q150.80-17.96 152.78-16.86Q154.76-15.76 156.02-14.50Q157.28-13.24 157.88-11.84Q158.48-10.44 158.48-8.76L158.48-8.76Q158.48-6.72 157.60-5.04Q156.72-3.36 155.14-2.16Q153.56-0.96 151.38-0.28Q149.20 0.40 146.56 0.40L146.56 0.40Q144.16 0.40 142.24-0.26Q140.32-0.92 138.28-2.40L138.28-2.40L137.48 0L136.52 0Z M194.48-24.36L194.48-6.44Q194.48-4.92 194.62-3.98Q194.76-3.04 195.22-2.54Q195.68-2.04 196.50-1.84Q197.32-1.64 198.68-1.60L198.68-1.60L198.68 0L184 0L184-1.60Q185.48-1.64 186.38-1.84Q187.28-2.04 187.78-2.52Q188.28-3 188.44-3.88Q188.60-4.76 188.60-6.16L188.60-6.16L188.60-14.52L173.76-14.52L173.76-6.44Q173.76-4.92 173.92-3.98Q174.08-3.04 174.56-2.54Q175.04-2.04 175.94-1.84Q176.84-1.64 178.32-1.60L178.32-1.60L178.32 0L163.68 0L163.68-1.60Q165.04-1.64 165.86-1.84Q166.68-2.04 167.12-2.52Q167.56-3 167.72-3.88Q167.88-4.76 167.88-6.16L167.88-6.16L167.88-24.64Q167.88-26.04 167.74-26.90Q167.60-27.76 167.20-28.26Q166.80-28.76 166.06-28.94Q165.32-29.12 164.12-29.20L164.12-29.20L164.12-30.80L177.92-30.80L177.92-29.20Q176.56-29.16 175.74-28.96Q174.92-28.76 174.48-28.24Q174.04-27.72 173.90-26.80Q173.76-25.88 173.76-24.36L173.76-24.36L173.76-17L188.60-17L188.60-24.64Q188.60-26.04 188.44-26.90Q188.28-27.76 187.84-28.26Q187.40-28.76 186.58-28.94Q185.76-29.12 184.40-29.20L184.40-29.20L184.40-30.80L198.24-30.80L198.24-29.20Q197.04-29.16 196.30-28.96Q195.56-28.76 195.16-28.24Q194.76-27.72 194.62-26.80Q194.48-25.88 194.48-24.36L194.48-24.36Z M217.80-1.60L217.80 0L203.52 0L203.52-1.60Q204.88-1.64 205.70-1.86Q206.52-2.08 206.96-2.68Q207.40-3.28 207.56-4.38Q207.72-5.48 207.72-7.36L207.72-7.36L207.72-23.44Q207.72-25.12 207.58-26.22Q207.44-27.32 207.04-27.96Q206.64-28.60 205.90-28.86Q205.16-29.12 203.92-29.20L203.92-29.20L203.92-30.80L217.40-30.80L217.40-29.20Q216.16-29.12 215.42-28.86Q214.68-28.60 214.28-27.96Q213.88-27.32 213.74-26.22Q213.60-25.12 213.60-23.44L213.60-23.44L213.60-7.36Q213.60-5.48 213.74-4.38Q213.88-3.28 214.34-2.68Q214.80-2.08 215.62-1.86Q216.44-1.64 217.80-1.60L217.80-1.60Z M264.92-30.80L265.32-22L263.60-22Q263.48-23.96 263.02-25.26Q262.56-26.56 261.72-27.34Q260.88-28.12 259.68-28.42Q258.48-28.72 256.88-28.72L256.88-28.72Q255.32-28.72 254.38-28.66Q253.44-28.60 252.94-28.46Q252.44-28.32 252.28-28.08Q252.12-27.84 252.12-27.48L252.12-27.48L252.12-6.52Q252.12-5.24 252.30-4.32Q252.48-3.40 253.04-2.82Q253.60-2.24 254.68-1.94Q255.76-1.64 257.52-1.60L257.52-1.60L257.52 0L240.76 0L240.76-1.60Q242.56-1.64 243.64-1.94Q244.72-2.24 245.30-2.82Q245.88-3.40 246.06-4.32Q246.24-5.24 246.24-6.52L246.24-6.52L246.24-27.48Q246.24-27.84 246.10-28.08Q245.96-28.32 245.52-28.46Q245.08-28.60 244.26-28.66Q243.44-28.72 242.12-28.72L242.12-28.72Q240.68-28.72 239.36-28.58Q238.04-28.44 237.04-27.78Q236.04-27.12 235.42-25.78Q234.80-24.44 234.76-22L234.76-22L233.20-22L233.60-30.80L264.92-30.80Z M295.60-23.08L295.60-23.08Q295.60-19.76 293.68-17.52Q291.76-15.28 287.56-14.52L287.56-14.52L296.84-3.88Q297.80-2.76 299.12-2.18Q300.44-1.60 301.80-1.60L301.80-1.60L301.80 0L292.32 0L282.40-12.16Q281.40-13.36 280.66-13.78Q279.92-14.20 279.28-14.20L279.28-14.20L279.28-6.36Q279.28-4.88 279.48-3.94Q279.68-3 280.28-2.48Q280.88-1.96 282.02-1.78Q283.16-1.60 285.08-1.60L285.08-1.60L285.08 0L269.20 0L269.20-1.60Q270.52-1.60 271.34-1.78Q272.16-1.96 272.62-2.46Q273.08-2.96 273.24-3.86Q273.40-4.76 273.40-6.16L273.40-6.16L273.40-24.64Q273.40-26.04 273.28-26.90Q273.16-27.76 272.76-28.26Q272.36-28.76 271.62-28.94Q270.88-29.12 269.64-29.20L269.64-29.20L269.64-30.80L283.48-30.80Q289.28-30.80 292.44-28.76Q295.60-26.72 295.60-23.08ZM279.28-27.88L279.28-16.60L281.88-16.60Q285.64-16.60 287.50-18.06Q289.36-19.52 289.36-22.88L289.36-22.88Q289.36-25.44 287.80-27Q286.24-28.56 283.48-28.56L283.48-28.56L280-28.56Q279.28-28.56 279.28-27.88L279.28-27.88Z M323.36-6.92L322.44-9.32L311.12-9.32Q309.24-5.08 309.24-3.44L309.24-3.44Q309.24-2.24 310.14-1.92Q311.04-1.60 312.84-1.60L312.84-1.60L312.84 0L301.88 0L301.88-1.60Q302.84-1.72 303.54-1.92Q304.24-2.12 304.78-2.48Q305.32-2.84 305.72-3.42Q306.12-4 306.48-4.84L306.48-4.84L317.00-31.20L319.96-31.20L329.52-7.84Q330.36-5.80 330.94-4.64Q331.52-3.48 332.18-2.86Q332.84-2.24 333.70-2Q334.56-1.76 335.92-1.64L335.92-1.64L335.92 0L320.80 0L320.80-1.64Q322.72-1.72 323.56-2.04Q324.40-2.36 324.40-3.32L324.40-3.32Q324.40-3.88 324.12-4.76Q323.84-5.64 323.36-6.92L323.36-6.92ZM316.80-23.84L312.04-11.72L321.56-11.72L316.96-23.84L316.80-23.84Z M354.84 0L338.16 0L338.16-1.60Q339.48-1.64 340.30-1.82Q341.12-2 341.58-2.50Q342.04-3 342.20-3.86Q342.36-4.72 342.36-6.16L342.36-6.16L342.36-24.64Q342.36-26.04 342.24-26.90Q342.12-27.76 341.72-28.26Q341.32-28.76 340.62-28.94Q339.92-29.12 338.80-29.20L338.80-29.20L338.80-30.80L354.00-30.80Q357.84-30.80 361.08-29.60Q364.32-28.40 366.68-26.28Q369.04-24.16 370.36-21.24Q371.68-18.32 371.68-14.88L371.68-14.88Q371.68-11.60 370.44-8.86Q369.20-6.12 366.98-4.16Q364.76-2.20 361.66-1.10Q358.56 0 354.84 0L354.84 0ZM353.92-28.36L348.92-28.36Q348.24-28.36 348.24-27.68L348.24-27.68L348.24-7Q348.24-4.68 349.68-3.56Q351.12-2.44 354.12-2.44L354.12-2.44Q359.36-2.44 362.18-5.60Q365.00-8.76 365.00-14.80L365.00-14.80Q365.00-18 364.24-20.52Q363.48-23.04 362.04-24.78Q360.60-26.52 358.54-27.44Q356.48-28.36 353.92-28.36L353.92-28.36Z M386.52-27.20L386.52-17.04Q389.08-17.04 390.64-17.20Q392.20-17.36 393.06-17.86Q393.92-18.36 394.28-19.32Q394.64-20.28 394.84-21.92L394.84-21.92L396.32-21.92L396.32-10.20L394.84-10.20Q394.60-11.80 394.20-12.76Q393.80-13.72 392.92-14.22Q392.04-14.72 390.54-14.86Q389.04-15 386.52-15L386.52-15L386.52-6.76Q386.52-5.48 386.86-4.60Q387.20-3.72 388-3.18Q388.80-2.64 390.12-2.42Q391.44-2.20 393.36-2.20L393.36-2.20Q395.64-2.20 397.22-2.52Q398.80-2.84 399.84-3.64Q400.88-4.44 401.52-5.78Q402.16-7.12 402.60-9.16L402.60-9.16L404.20-9.16L403.56 0L376.44 0L376.44-1.60Q377.76-1.64 378.60-1.84Q379.44-2.04 379.88-2.52Q380.32-3 380.48-3.88Q380.64-4.76 380.64-6.16L380.64-6.16L380.64-24.64Q380.64-26.04 380.50-26.90Q380.36-27.76 379.96-28.26Q379.56-28.76 378.82-28.94Q378.08-29.12 376.88-29.20L376.88-29.20L376.88-30.80L402.16-30.80L402.44-22.96L400.72-22.96Q400.48-24.64 399.96-25.74Q399.44-26.84 398.52-27.50Q397.60-28.16 396.14-28.42Q394.68-28.68 392.56-28.68L392.56-28.68L388.04-28.68Q387-28.68 386.76-28.42Q386.52-28.16 386.52-27.20L386.52-27.20Z M448.24-22.24L448.24-22.24Q448.24-17.92 444.88-15.66Q441.52-13.40 435.12-13.40L435.12-13.40L431.72-13.40L431.72-6.36Q431.72-4.84 431.92-3.90Q432.12-2.96 432.76-2.44Q433.40-1.92 434.52-1.76Q435.64-1.60 437.52-1.60L437.52-1.60L437.52 0L421.64 0L421.64-1.60Q422.96-1.64 423.80-1.84Q424.64-2.04 425.08-2.52Q425.52-3 425.68-3.88Q425.84-4.76 425.84-6.16L425.84-6.16L425.84-24.64Q425.84-26.04 425.70-26.90Q425.56-27.76 425.16-28.26Q424.76-28.76 424.02-28.94Q423.28-29.12 422.08-29.20L422.08-29.20L422.08-30.80L435.92-30.80Q442-30.80 445.12-28.64Q448.24-26.48 448.24-22.24ZM431.72-27.88L431.72-15.80L434.32-15.80Q438.20-15.80 440-17.36Q441.80-18.92 441.80-22.28L441.80-22.28Q441.80-25.28 440.28-26.92Q438.76-28.56 435.52-28.56L435.52-28.56L432.44-28.56Q431.72-28.56 431.72-27.88L431.72-27.88Z M478.72-23.08L478.72-23.08Q478.72-19.76 476.80-17.52Q474.88-15.28 470.68-14.52L470.68-14.52L479.96-3.88Q480.92-2.76 482.24-2.18Q483.56-1.60 484.92-1.60L484.92-1.60L484.92 0L475.44 0L465.52-12.16Q464.52-13.36 463.78-13.78Q463.04-14.20 462.40-14.20L462.40-14.20L462.40-6.36Q462.40-4.88 462.60-3.94Q462.80-3 463.40-2.48Q464-1.96 465.14-1.78Q466.28-1.60 468.20-1.60L468.20-1.60L468.20 0L452.32 0L452.32-1.60Q453.64-1.60 454.46-1.78Q455.28-1.96 455.74-2.46Q456.20-2.96 456.36-3.86Q456.52-4.76 456.52-6.16L456.52-6.16L456.52-24.64Q456.52-26.04 456.40-26.90Q456.28-27.76 455.88-28.26Q455.48-28.76 454.74-28.94Q454-29.12 452.76-29.20L452.76-29.20L452.76-30.80L466.60-30.80Q472.40-30.80 475.56-28.76Q478.72-26.72 478.72-23.08ZM462.40-27.88L462.40-16.60L465-16.60Q468.76-16.60 470.62-18.06Q472.48-19.52 472.48-22.88L472.48-22.88Q472.48-25.44 470.92-27Q469.36-28.56 466.60-28.56L466.60-28.56L463.12-28.56Q462.40-28.56 462.40-27.88L462.40-27.88Z M503.64-31.20L503.64-31.20Q507.24-31.20 510.36-29.96Q513.48-28.72 515.78-26.56Q518.08-24.40 519.40-21.48Q520.72-18.56 520.72-15.16L520.72-15.16Q520.72-11.92 519.38-9.08Q518.04-6.24 515.74-4.14Q513.44-2.04 510.32-0.82Q507.20 0.40 503.64 0.40L503.64 0.40Q500.08 0.40 496.96-0.82Q493.84-2.04 491.52-4.14Q489.20-6.24 487.88-9.08Q486.56-11.92 486.56-15.16L486.56-15.16Q486.56-18.56 487.88-21.48Q489.20-24.40 491.50-26.56Q493.80-28.72 496.92-29.96Q500.04-31.20 503.64-31.20ZM503.64-2.20L503.64-2.20Q505.96-2.20 507.84-3.10Q509.72-4 511.04-5.66Q512.36-7.32 513.06-9.70Q513.76-12.08 513.76-15.04L513.76-15.04Q513.76-18.16 513.06-20.66Q512.36-23.16 511.04-24.94Q509.72-26.72 507.84-27.66Q505.96-28.60 503.64-28.60L503.64-28.60Q501.28-28.60 499.42-27.66Q497.56-26.72 496.24-24.94Q494.92-23.16 494.22-20.66Q493.52-18.16 493.52-15.04L493.52-15.04Q493.52-12.08 494.22-9.70Q494.92-7.32 496.24-5.66Q497.56-4 499.42-3.10Q501.28-2.20 503.64-2.20Z"/></g>
</svg>
</g><g opacity="1" transform="rotate(0 163.0787 2.2058)">
<svg width="196.9213" height="229.2424" x="163.0787" y="2.2058" version="1.1" preserveAspectRatio="none" viewBox="35.76499557495117 32.599998474121094 119.92799377441406 139.61199951171875">
  <g transform="matrix(1 0 0 1 0 0)"><g><path data-color="1" d="M35.765 69.678v68.661l60.422 33.873v-22.887l-40.282-22.887-.458-44.859-19.682-11.901z" class="icon1"></path><path data-color="2" d="M115.869 45.875L96.187 32.6 35.765 69.678l19.682 11.901 60.422-35.704z" class="icon2"></path><path data-color="3" d="M96.187 149.325l59.506-35.246v24.26l-59.506 33.873v-22.887z" class="icon3"></path><path data-color="1" d="M115.869 57.09l30.669 18.08-40.281 56.761-30.44-17.852 40.052-56.989z" class="icon1"></path><path data-color="3" d="M146.538 108.128l-40.281 23.803 40.281-56.761v32.958z" class="icon3"></path><path data-color="2" d="M55.905 126.438l19.912-12.359 30.44 17.852 40.281-23.803 9.155 5.951-59.506 35.246-40.282-22.887z" class="icon2"></path><path data-color="3" d="M115.869 45.875V57.09l-40.052 56.989-19.912 12.359-.458-44.859 60.422-35.704z" class="icon3"></path></g></g>
</svg>
</g></svg></svg>