<svg version="1.1" preserveAspectRatio="none" xmlns="http://www.w3.org/2000/svg" width="500" height="500" viewBox="0 0 500 500"><rect width="100%" height="100%" fill="#FFFFFF" fill-opacity="1"/><svg viewBox="-107.6995 106.8428 547.5067 176" width="333" height="107.04526538214051" x="83.5px" y="196.4774px" xmlns="http://www.w3.org/2000/svg" xmlns:xlink="http://www.w3.org/1999/xlink" preserveAspectRatio="none"><defs></defs><style>.companyName {fill:#182145;fill-opacity:1;}.icon1 {fill:#182145;fill-opacity:1;}.icon2 {fill:#E35B34;fill-opacity:1;}.icon3 {fill:#E3D454;fill-opacity:1;}.icon3-str {stroke:#E3D454;stroke-opacity:1;}.text {fill:#182145;fill-opacity:1;}</style><g opacity="1" transform="rotate(0 -2.949 106.8428)">
<svg width="110.4541" height="120" x="-2.949" y="106.8428" version="1.1" preserveAspectRatio="none" viewBox="10.533000946044922 7.23900032043457 79.91999816894531 86.8270034790039">
  <g transform="matrix(1 0 0 1 0 0)" class="icon1"><path d="M81.702,22.52c-2.616-1.533-18.196-10.483-22.328-12.891c-2.609-1.52-5.642-2.39-8.88-2.39c-3.291,0-6.371,0.899-9.01,2.467  c-4.069,2.416-19.505,11.269-22.101,12.767c-5.29,3.053-8.85,8.768-8.85,15.312c0,5.075,0,20.664,0,25.739  c0,6.472,3.479,12.132,8.67,15.209c2.636,1.563,18.276,10.534,22.407,12.941c2.609,1.521,5.645,2.392,8.883,2.392  c3.242,0,6.281-0.873,8.893-2.398c4.126-2.407,19.589-11.322,22.175-12.804c5.312-3.047,8.892-8.775,8.892-15.34  c0-5.077,0-20.673,0-25.75C90.453,31.27,86.938,25.585,81.702,22.52z M70.69,57.147c0,3.316-1.808,6.21-4.492,7.75  c-1.307,0.748-9.118,5.252-11.202,6.47c-1.32,0.77-2.854,1.21-4.493,1.21c-1.637,0-3.17-0.439-4.488-1.207  c-2.087-1.218-9.989-5.749-11.321-6.539c-2.622-1.555-4.38-4.413-4.38-7.684c0-2.563,0-10.439,0-13.004  c0-3.308,1.799-6.194,4.471-7.736c1.312-0.757,9.11-5.229,11.166-6.45c1.333-0.792,2.89-1.246,4.553-1.246  c1.635,0,3.167,0.439,4.485,1.207c2.087,1.217,9.959,5.737,11.281,6.513c2.645,1.549,4.421,4.421,4.421,7.707  C70.69,46.703,70.69,54.582,70.69,57.147z"></path></g>
</svg>
</g><g opacity="1" transform="rotate(0 137.5051 106.8428)">
<svg width="197.5515" height="120" x="137.5051" y="106.8428" version="1.1" preserveAspectRatio="none" viewBox="1.12 -28.48 179.35999999999999 108.96000000000001">
  <g transform="matrix(1 0 0 1 0 0)" class="companyName"><path id="id-D6z1nYkh15" d="M12.52 0.48Q9.20 0.48 6.10-0.42Q3-1.32 1.12-2.76L1.12-2.76L3.32-7.64Q5.12-6.32 7.60-5.52Q10.08-4.72 12.56-4.72L12.56-4.72Q15.32-4.72 16.64-5.54Q17.96-6.36 17.96-7.72L17.96-7.72Q17.96-8.72 17.18-9.38Q16.40-10.04 15.18-10.44Q13.96-10.84 11.88-11.32L11.88-11.32Q8.68-12.08 6.64-12.84Q4.60-13.60 3.14-15.28Q1.68-16.96 1.68-19.76L1.68-19.76Q1.68-22.20 3-24.18Q4.32-26.16 6.98-27.32Q9.64-28.48 13.48-28.48L13.48-28.48Q16.16-28.48 18.72-27.84Q21.28-27.20 23.20-26L23.20-26L21.20-21.08Q17.32-23.28 13.44-23.28L13.44-23.28Q10.72-23.28 9.42-22.40Q8.12-21.52 8.12-20.08L8.12-20.08Q8.12-18.64 9.62-17.94Q11.12-17.24 14.20-16.56L14.20-16.56Q17.40-15.80 19.44-15.04Q21.48-14.28 22.94-12.64Q24.40-11 24.40-8.20L24.40-8.20Q24.40-5.80 23.06-3.82Q21.72-1.84 19.04-0.68Q16.36 0.48 12.52 0.48L12.52 0.48Z M49.76 0L47.28-6L34.28-6L31.80 0L25.16 0L37.64-28L44.04-28L56.56 0L49.76 0ZM36.36-10.92L45.24-10.92L40.80-21.64L36.36-10.92Z M63.88 0L63.88-22.72L54.92-22.72L54.92-28L79.32-28L79.32-22.72L70.36-22.72L70.36 0L63.88 0Z M95.96 0.48Q91.60 0.48 88.10-1.40Q84.60-3.28 82.62-6.58Q80.64-9.88 80.64-14L80.64-14Q80.64-18.12 82.62-21.42Q84.60-24.72 88.10-26.60Q91.60-28.48 95.96-28.48L95.96-28.48Q100.32-28.48 103.80-26.60Q107.28-24.72 109.28-21.42Q111.28-18.12 111.28-14L111.28-14Q111.28-9.88 109.28-6.58Q107.28-3.28 103.80-1.40Q100.32 0.48 95.96 0.48L95.96 0.48ZM95.96-5.04Q98.44-5.04 100.44-6.18Q102.44-7.32 103.58-9.36Q104.72-11.40 104.72-14L104.72-14Q104.72-16.60 103.58-18.64Q102.44-20.68 100.44-21.82Q98.44-22.96 95.96-22.96L95.96-22.96Q93.48-22.96 91.48-21.82Q89.48-20.68 88.34-18.64Q87.20-16.60 87.20-14L87.20-14Q87.20-11.40 88.34-9.36Q89.48-7.32 91.48-6.18Q93.48-5.04 95.96-5.04L95.96-5.04Z M125.36 0.48Q122.04 0.48 118.94-0.42Q115.84-1.32 113.96-2.76L113.96-2.76L116.16-7.64Q117.96-6.32 120.44-5.52Q122.92-4.72 125.40-4.72L125.40-4.72Q128.16-4.72 129.48-5.54Q130.80-6.36 130.80-7.72L130.80-7.72Q130.80-8.72 130.02-9.38Q129.24-10.04 128.02-10.44Q126.80-10.84 124.72-11.32L124.72-11.32Q121.52-12.08 119.48-12.84Q117.44-13.60 115.98-15.28Q114.52-16.96 114.52-19.76L114.52-19.76Q114.52-22.20 115.84-24.18Q117.16-26.16 119.82-27.32Q122.48-28.48 126.32-28.48L126.32-28.48Q129.00-28.48 131.56-27.84Q134.12-27.20 136.04-26L136.04-26L134.04-21.08Q130.16-23.28 126.28-23.28L126.28-23.28Q123.56-23.28 122.26-22.40Q120.96-21.52 120.96-20.08L120.96-20.08Q120.96-18.64 122.46-17.94Q123.96-17.24 127.04-16.56L127.04-16.56Q130.24-15.80 132.28-15.04Q134.32-14.28 135.78-12.64Q137.24-11 137.24-8.20L137.24-8.20Q137.24-5.80 135.90-3.82Q134.56-1.84 131.88-0.68Q129.20 0.48 125.36 0.48L125.36 0.48Z M160.88-28L167.36-28L167.36 0L160.88 0L160.88-11.48L148.16-11.48L148.16 0L141.68 0L141.68-28L148.16-28L148.16-16.96L160.88-16.96L160.88-28Z M174.00 0L174.00-28L180.48-28L180.48 0L174.00 0Z M10.08 40L10.08 17.28L1.12 17.28L1.12 12L25.52 12L25.52 17.28L16.56 17.28L16.56 40L10.08 40Z M53.80 40L46.84 40L41.44 32.20L41.12 32.20L35.48 32.20L35.48 40L29 40L29 12L41.12 12Q44.84 12 47.58 13.24Q50.32 14.48 51.80 16.76Q53.28 19.04 53.28 22.16L53.28 22.16Q53.28 25.28 51.78 27.54Q50.28 29.80 47.52 31L47.52 31L53.80 40ZM46.72 22.16Q46.72 19.80 45.20 18.54Q43.68 17.28 40.76 17.28L40.76 17.28L35.48 17.28L35.48 27.04L40.76 27.04Q43.68 27.04 45.20 25.76Q46.72 24.48 46.72 22.16L46.72 22.16Z M79.32 40L76.84 34L63.84 34L61.36 40L54.72 40L67.20 12L73.60 12L86.12 40L79.32 40ZM65.92 29.08L74.80 29.08L70.36 18.36L65.92 29.08Z M89.04 40L89.04 12L101.76 12Q106.32 12 109.82 13.74Q113.32 15.48 115.26 18.64Q117.20 21.80 117.20 26L117.20 26Q117.20 30.20 115.26 33.36Q113.32 36.52 109.82 38.26Q106.32 40 101.76 40L101.76 40L89.04 40ZM95.52 34.68L101.44 34.68Q105.64 34.68 108.14 32.34Q110.64 30 110.64 26L110.64 26Q110.64 22 108.14 19.66Q105.64 17.32 101.44 17.32L101.44 17.32L95.52 17.32L95.52 34.68Z M128.52 34.80L143.76 34.80L143.76 40L122.08 40L122.08 12L143.24 12L143.24 17.20L128.52 17.20L128.52 23.28L141.52 23.28L141.52 28.32L128.52 28.32L128.52 34.80Z M13.24 52Q16.96 52 19.70 53.24Q22.44 54.48 23.92 56.76Q25.40 59.04 25.40 62.16L25.40 62.16Q25.40 65.24 23.92 67.54Q22.44 69.84 19.70 71.06Q16.96 72.28 13.24 72.28L13.24 72.28L7.60 72.28L7.60 80L1.12 80L1.12 52L13.24 52ZM12.88 67Q15.80 67 17.32 65.74Q18.84 64.48 18.84 62.16L18.84 62.16Q18.84 59.80 17.32 58.54Q15.80 57.28 12.88 57.28L12.88 57.28L7.60 57.28L7.60 67L12.88 67Z M54.80 80L47.84 80L42.44 72.20L42.12 72.20L36.48 72.20L36.48 80L30 80L30 52L42.12 52Q45.84 52 48.58 53.24Q51.32 54.48 52.80 56.76Q54.28 59.04 54.28 62.16L54.28 62.16Q54.28 65.28 52.78 67.54Q51.28 69.80 48.52 71L48.52 71L54.80 80ZM47.72 62.16Q47.72 59.80 46.20 58.54Q44.68 57.28 41.76 57.28L41.76 57.28L36.48 57.28L36.48 67.04L41.76 67.04Q44.68 67.04 46.20 65.76Q47.72 64.48 47.72 62.16L47.72 62.16Z M72.96 80.48Q68.60 80.48 65.10 78.60Q61.60 76.72 59.62 73.42Q57.64 70.12 57.64 66L57.64 66Q57.64 61.88 59.62 58.58Q61.60 55.28 65.10 53.40Q68.60 51.52 72.96 51.52L72.96 51.52Q77.32 51.52 80.80 53.40Q84.28 55.28 86.28 58.58Q88.28 61.88 88.28 66L88.28 66Q88.28 70.12 86.28 73.42Q84.28 76.72 80.80 78.60Q77.32 80.48 72.96 80.48L72.96 80.48ZM72.96 74.96Q75.44 74.96 77.44 73.82Q79.44 72.68 80.58 70.64Q81.72 68.60 81.72 66L81.72 66Q81.72 63.40 80.58 61.36Q79.44 59.32 77.44 58.18Q75.44 57.04 72.96 57.04L72.96 57.04Q70.48 57.04 68.48 58.18Q66.48 59.32 65.34 61.36Q64.20 63.40 64.20 66L64.20 66Q64.20 68.60 65.34 70.64Q66.48 72.68 68.48 73.82Q70.48 74.96 72.96 74.96L72.96 74.96Z"/></g>
</svg>
</g><g opacity="1" transform="rotate(0 -107.6995 262.8428)">
<svg width="547.5067" height="20" x="-107.6995" y="262.8428" version="1.1" preserveAspectRatio="none" viewBox="2.52 -30.28 1048.1599999999999 38.28">
  <g transform="matrix(1 0 0 1 0 0)" class="text"><path id="id-D-YM9nyY447" d="M2.76-17.20L2.52-28L5.88-28L5.60-17.20L2.76-17.20ZM10-17.20L9.76-28L13.12-28L12.84-17.20L10-17.20Z M25.04-3.48L41.36-3.48L41.36 0L21.04 0L21.04-28L40.80-28L40.80-24.52L25.04-24.52L25.04-15.92L39.08-15.92L39.08-12.52L25.04-12.52L25.04-3.48Z M75-21.40Q79-21.40 81.34-19.08Q83.68-16.76 83.68-12.20L83.68-12.20L83.68 0L79.84 0L79.84-11.76Q79.84-14.84 78.42-16.40Q77-17.96 74.36-17.96L74.36-17.96Q71.44-17.96 69.72-16.14Q68-14.32 68-10.92L68-10.92L68 0L64.16 0L64.16-11.76Q64.16-14.84 62.74-16.40Q61.32-17.96 58.68-17.96L58.68-17.96Q55.76-17.96 54.04-16.14Q52.32-14.32 52.32-10.92L52.32-10.92L52.32 0L48.48 0L48.48-21.20L52.16-21.20L52.16-18.04Q53.32-19.68 55.20-20.54Q57.08-21.40 59.48-21.40L59.48-21.40Q61.96-21.40 63.88-20.40Q65.80-19.40 66.84-17.48L66.84-17.48Q68.04-19.32 70.18-20.36Q72.32-21.40 75-21.40L75-21.40Z M103.20-21.40Q106.28-21.40 108.72-20.04Q111.16-18.68 112.54-16.24Q113.92-13.80 113.92-10.60L113.92-10.60Q113.92-7.40 112.54-4.94Q111.16-2.48 108.72-1.12Q106.28 0.24 103.20 0.24L103.20 0.24Q100.92 0.24 99.02-0.64Q97.12-1.52 95.80-3.20L95.80-3.20L95.80 7.76L91.96 7.76L91.96-21.20L95.64-21.20L95.64-17.84Q96.92-19.60 98.88-20.50Q100.84-21.40 103.20-21.40L103.20-21.40ZM102.88-3.12Q104.92-3.12 106.54-4.06Q108.16-5 109.10-6.70Q110.04-8.40 110.04-10.60L110.04-10.60Q110.04-12.80 109.10-14.50Q108.16-16.20 106.54-17.12Q104.92-18.04 102.88-18.04L102.88-18.04Q100.88-18.04 99.26-17.10Q97.64-16.16 96.70-14.48Q95.76-12.80 95.76-10.60L95.76-10.60Q95.76-8.40 96.68-6.70Q97.60-5 99.24-4.06Q100.88-3.12 102.88-3.12L102.88-3.12Z M129.52 0.24Q126.36 0.24 123.84-1.16Q121.32-2.56 119.90-5.02Q118.48-7.48 118.48-10.60L118.48-10.60Q118.48-13.72 119.90-16.18Q121.32-18.64 123.84-20.02Q126.36-21.40 129.52-21.40L129.52-21.40Q132.68-21.40 135.18-20.02Q137.68-18.64 139.10-16.18Q140.52-13.72 140.52-10.60L140.52-10.60Q140.52-7.48 139.10-5.02Q137.68-2.56 135.18-1.16Q132.68 0.24 129.52 0.24L129.52 0.24ZM129.52-3.12Q131.56-3.12 133.18-4.06Q134.80-5 135.72-6.70Q136.64-8.40 136.64-10.60L136.64-10.60Q136.64-12.80 135.72-14.50Q134.80-16.20 133.18-17.12Q131.56-18.04 129.52-18.04L129.52-18.04Q127.48-18.04 125.86-17.12Q124.24-16.20 123.30-14.50Q122.36-12.80 122.36-10.60L122.36-10.60Q122.36-8.40 123.30-6.70Q124.24-5 125.86-4.06Q127.48-3.12 129.52-3.12L129.52-3.12Z M175.08-21.20L178.52-21.20L170.60 0L166.92 0L160.80-16.08L154.60 0L150.92 0L143.04-21.20L146.68-21.20L152.84-4.32L159.24-21.20L162.48-21.20L168.76-4.24L175.08-21.20Z M202.16-10.48Q202.16-10.04 202.08-9.32L202.08-9.32L184.88-9.32Q185.24-6.52 187.34-4.82Q189.44-3.12 192.56-3.12L192.56-3.12Q196.36-3.12 198.68-5.68L198.68-5.68L200.80-3.20Q199.36-1.52 197.22-0.64Q195.08 0.24 192.44 0.24L192.44 0.24Q189.08 0.24 186.48-1.14Q183.88-2.52 182.46-5Q181.04-7.48 181.04-10.60L181.04-10.60Q181.04-13.68 182.42-16.16Q183.80-18.64 186.22-20.02Q188.64-21.40 191.68-21.40L191.68-21.40Q194.72-21.40 197.10-20.02Q199.48-18.64 200.82-16.16Q202.16-13.68 202.16-10.48L202.16-10.48ZM191.68-18.16Q188.92-18.16 187.06-16.48Q185.20-14.80 184.88-12.08L184.88-12.08L198.48-12.08Q198.16-14.76 196.30-16.46Q194.44-18.16 191.68-18.16L191.68-18.16Z M212.36-17.64Q213.36-19.48 215.32-20.44Q217.28-21.40 220.08-21.40L220.08-21.40L220.08-17.68Q219.76-17.72 219.20-17.72L219.20-17.72Q216.08-17.72 214.30-15.86Q212.52-14 212.52-10.56L212.52-10.56L212.52 0L208.68 0L208.68-21.20L212.36-21.20L212.36-17.64Z M226.00 0L226.00-21.20L229.84-21.20L229.84 0L226.00 0ZM227.92-25.28Q226.80-25.28 226.06-26Q225.32-26.72 225.32-27.76L225.32-27.76Q225.32-28.80 226.06-29.54Q226.80-30.28 227.92-30.28L227.92-30.28Q229.04-30.28 229.78-29.58Q230.52-28.88 230.52-27.84L230.52-27.84Q230.52-26.76 229.78-26.02Q229.04-25.28 227.92-25.28L227.92-25.28Z M249.68-21.40Q253.72-21.40 256.10-19.06Q258.48-16.72 258.48-12.20L258.48-12.20L258.48 0L254.64 0L254.64-11.76Q254.64-14.84 253.16-16.40Q251.68-17.96 248.92-17.96L248.92-17.96Q245.80-17.96 244.00-16.14Q242.20-14.32 242.20-10.92L242.20-10.92L242.20 0L238.36 0L238.36-21.20L242.04-21.20L242.04-18Q243.20-19.64 245.18-20.52Q247.16-21.40 249.68-21.40L249.68-21.40Z M283.56-21.20L287.20-21.20L287.20-2.88Q287.20 2.68 284.44 5.34Q281.68 8 276.20 8L276.20 8Q273.20 8 270.48 7.18Q267.76 6.36 266.08 4.84L266.08 4.84L267.92 1.88Q269.40 3.16 271.58 3.90Q273.76 4.64 276.08 4.64L276.08 4.64Q279.80 4.64 281.58 2.88Q283.36 1.12 283.36-2.48L283.36-2.48L283.36-4.16Q282-2.52 280.02-1.70Q278.04-0.88 275.72-0.88L275.72-0.88Q272.68-0.88 270.22-2.18Q267.76-3.48 266.36-5.82Q264.96-8.16 264.96-11.16L264.96-11.16Q264.96-14.16 266.36-16.50Q267.76-18.84 270.22-20.12Q272.68-21.40 275.72-21.40L275.72-21.40Q278.12-21.40 280.18-20.52Q282.24-19.64 283.56-17.92L283.56-17.92L283.56-21.20ZM276.16-4.24Q278.24-4.24 279.90-5.12Q281.56-6 282.50-7.58Q283.44-9.16 283.44-11.16L283.44-11.16Q283.44-14.24 281.40-16.14Q279.36-18.04 276.16-18.04L276.16-18.04Q272.92-18.04 270.88-16.14Q268.84-14.24 268.84-11.16L268.84-11.16Q268.84-9.16 269.78-7.58Q270.72-6 272.38-5.12Q274.04-4.24 276.16-4.24L276.16-4.24Z M330.08-28L318.96-9.68L318.96 0L315.00 0L315.00-9.76L303.88-28L308.16-28L317.12-13.24L326.12-28L330.08-28Z M341.44 0.24Q338.28 0.24 335.76-1.16Q333.24-2.56 331.82-5.02Q330.40-7.48 330.40-10.60L330.40-10.60Q330.40-13.72 331.82-16.18Q333.24-18.64 335.76-20.02Q338.28-21.40 341.44-21.40L341.44-21.40Q344.60-21.40 347.10-20.02Q349.60-18.64 351.02-16.18Q352.44-13.72 352.44-10.60L352.44-10.60Q352.44-7.48 351.02-5.02Q349.60-2.56 347.10-1.16Q344.60 0.24 341.44 0.24L341.44 0.24ZM341.44-3.12Q343.48-3.12 345.10-4.06Q346.72-5 347.64-6.70Q348.56-8.40 348.56-10.60L348.56-10.60Q348.56-12.80 347.64-14.50Q346.72-16.20 345.10-17.12Q343.48-18.04 341.44-18.04L341.44-18.04Q339.40-18.04 337.78-17.12Q336.16-16.20 335.22-14.50Q334.28-12.80 334.28-10.60L334.28-10.60Q334.28-8.40 335.22-6.70Q336.16-5 337.78-4.06Q339.40-3.12 341.44-3.12L341.44-3.12Z M374.88-21.20L378.72-21.20L378.72 0L375.08 0L375.08-3.20Q373.92-1.56 372.02-0.66Q370.12 0.24 367.88 0.24L367.88 0.24Q363.64 0.24 361.20-2.10Q358.76-4.44 358.76-9L358.76-9L358.76-21.20L362.60-21.20L362.60-9.44Q362.60-6.36 364.08-4.78Q365.56-3.20 368.32-3.20L368.32-3.20Q371.36-3.20 373.12-5.04Q374.88-6.88 374.88-10.24L374.88-10.24L374.88-21.20Z M390.92-17.64Q391.92-19.48 393.88-20.44Q395.84-21.40 398.64-21.40L398.64-21.40L398.64-17.68Q398.32-17.72 397.76-17.72L397.76-17.72Q394.64-17.72 392.86-15.86Q391.08-14 391.08-10.56L391.08-10.56L391.08 0L387.24 0L387.24-21.20L390.92-21.20L390.92-17.64Z M417.36 0L417.36-28L429.16-28Q433.60-28 437.04-26.24Q440.48-24.48 442.38-21.30Q444.28-18.12 444.28-14L444.28-14Q444.28-9.88 442.38-6.70Q440.48-3.52 437.04-1.76Q433.60 0 429.16 0L429.16 0L417.36 0ZM421.36-3.48L428.92-3.48Q432.32-3.48 434.90-4.80Q437.48-6.12 438.88-8.50Q440.28-10.88 440.28-14L440.28-14Q440.28-17.12 438.88-19.50Q437.48-21.88 434.90-23.20Q432.32-24.52 428.92-24.52L428.92-24.52L421.36-24.52L421.36-3.48Z M451.04 0L451.04-21.20L454.88-21.20L454.88 0L451.04 0ZM452.96-25.28Q451.84-25.28 451.10-26Q450.36-26.72 450.36-27.76L450.36-27.76Q450.36-28.80 451.10-29.54Q451.84-30.28 452.96-30.28L452.96-30.28Q454.08-30.28 454.82-29.58Q455.56-28.88 455.56-27.84L455.56-27.84Q455.56-26.76 454.82-26.02Q454.08-25.28 452.96-25.28L452.96-25.28Z M480.04-21.20L483.68-21.20L483.68-2.88Q483.68 2.68 480.92 5.34Q478.16 8 472.68 8L472.68 8Q469.68 8 466.96 7.18Q464.24 6.36 462.56 4.84L462.56 4.84L464.40 1.88Q465.88 3.16 468.06 3.90Q470.24 4.64 472.56 4.64L472.56 4.64Q476.28 4.64 478.06 2.88Q479.84 1.12 479.84-2.48L479.84-2.48L479.84-4.16Q478.48-2.52 476.50-1.70Q474.52-0.88 472.20-0.88L472.20-0.88Q469.16-0.88 466.70-2.18Q464.24-3.48 462.84-5.82Q461.44-8.16 461.44-11.16L461.44-11.16Q461.44-14.16 462.84-16.50Q464.24-18.84 466.70-20.12Q469.16-21.40 472.20-21.40L472.20-21.40Q474.60-21.40 476.66-20.52Q478.72-19.64 480.04-17.92L480.04-17.92L480.04-21.20ZM472.64-4.24Q474.72-4.24 476.38-5.12Q478.04-6 478.98-7.58Q479.92-9.16 479.92-11.16L479.92-11.16Q479.92-14.24 477.88-16.14Q475.84-18.04 472.64-18.04L472.64-18.04Q469.40-18.04 467.36-16.14Q465.32-14.24 465.32-11.16L465.32-11.16Q465.32-9.16 466.26-7.58Q467.20-6 468.86-5.12Q470.52-4.24 472.64-4.24L472.64-4.24Z M492.20 0L492.20-21.20L496.04-21.20L496.04 0L492.20 0ZM494.12-25.28Q493.00-25.28 492.26-26Q491.52-26.72 491.52-27.76L491.52-27.76Q491.52-28.80 492.26-29.54Q493.00-30.28 494.12-30.28L494.12-30.28Q495.24-30.28 495.98-29.58Q496.72-28.88 496.72-27.84L496.72-27.84Q496.72-26.76 495.98-26.02Q495.24-25.28 494.12-25.28L494.12-25.28Z M515.28-4L516.48-1.24Q515.64-0.52 514.40-0.14Q513.16 0.24 511.84 0.24L511.84 0.24Q508.64 0.24 506.88-1.48Q505.12-3.20 505.12-6.40L505.12-6.40L505.12-18.04L501.52-18.04L501.52-21.20L505.12-21.20L505.12-25.84L508.96-25.84L508.96-21.20L515.04-21.20L515.04-18.04L508.96-18.04L508.96-6.56Q508.96-4.84 509.82-3.92Q510.68-3 512.28-3L512.28-3Q514.04-3 515.28-4L515.28-4Z M530.04-21.40Q534.44-21.40 536.78-19.24Q539.12-17.08 539.12-12.80L539.12-12.80L539.12 0L535.48 0L535.48-2.80Q534.52-1.32 532.74-0.54Q530.96 0.24 528.52 0.24L528.52 0.24Q524.96 0.24 522.82-1.48Q520.68-3.20 520.68-6L520.68-6Q520.68-8.80 522.72-10.50Q524.76-12.20 529.20-12.20L529.20-12.20L535.28-12.20L535.28-12.96Q535.28-15.44 533.84-16.76Q532.40-18.08 529.60-18.08L529.60-18.08Q527.72-18.08 525.92-17.46Q524.12-16.84 522.88-15.80L522.88-15.80L521.28-18.68Q522.92-20 525.20-20.70Q527.48-21.40 530.04-21.40L530.04-21.40ZM529.16-2.72Q531.36-2.72 532.96-3.70Q534.56-4.68 535.28-6.48L535.28-6.48L535.28-9.44L529.36-9.44Q524.48-9.44 524.48-6.16L524.48-6.16Q524.48-4.56 525.72-3.64Q526.96-2.72 529.16-2.72L529.16-2.72Z M547.44 0L547.44-29.68L551.28-29.68L551.28 0L547.44 0Z M592.08-24.52L576.32-24.52L576.32-14.76L590.36-14.76L590.36-11.32L576.32-11.32L576.32 0L572.32 0L572.32-28L592.08-28L592.08-24.52Z M606.76 0.24Q603.60 0.24 601.08-1.16Q598.56-2.56 597.14-5.02Q595.72-7.48 595.72-10.60L595.72-10.60Q595.72-13.72 597.14-16.18Q598.56-18.64 601.08-20.02Q603.60-21.40 606.76-21.40L606.76-21.40Q609.92-21.40 612.42-20.02Q614.92-18.64 616.34-16.18Q617.76-13.72 617.76-10.60L617.76-10.60Q617.76-7.48 616.34-5.02Q614.92-2.56 612.42-1.16Q609.92 0.24 606.76 0.24L606.76 0.24ZM606.76-3.12Q608.80-3.12 610.42-4.06Q612.04-5 612.96-6.70Q613.88-8.40 613.88-10.60L613.88-10.60Q613.88-12.80 612.96-14.50Q612.04-16.20 610.42-17.12Q608.80-18.04 606.76-18.04L606.76-18.04Q604.72-18.04 603.10-17.12Q601.48-16.20 600.54-14.50Q599.60-12.80 599.60-10.60L599.60-10.60Q599.60-8.40 600.54-6.70Q601.48-5 603.10-4.06Q604.72-3.12 606.76-3.12L606.76-3.12Z M627.96-17.64Q628.96-19.48 630.92-20.44Q632.88-21.40 635.68-21.40L635.68-21.40L635.68-17.68Q635.36-17.72 634.80-17.72L634.80-17.72Q631.68-17.72 629.90-15.86Q628.12-14 628.12-10.56L628.12-10.56L628.12 0L624.28 0L624.28-21.20L627.96-21.20L627.96-17.64Z M653.20-4L654.40-1.24Q653.56-0.52 652.32-0.14Q651.08 0.24 649.76 0.24L649.76 0.24Q646.56 0.24 644.80-1.48Q643.04-3.20 643.04-6.40L643.04-6.40L643.04-18.04L639.44-18.04L639.44-21.20L643.04-21.20L643.04-25.84L646.88-25.84L646.88-21.20L652.96-21.20L652.96-18.04L646.88-18.04L646.88-6.56Q646.88-4.84 647.74-3.92Q648.60-3 650.20-3L650.20-3Q651.96-3 653.20-4L653.20-4Z M676.16-21.20L680.00-21.20L680.00 0L676.36 0L676.36-3.20Q675.20-1.56 673.30-0.66Q671.40 0.24 669.16 0.24L669.16 0.24Q664.92 0.24 662.48-2.10Q660.04-4.44 660.04-9L660.04-9L660.04-21.20L663.88-21.20L663.88-9.44Q663.88-6.36 665.36-4.78Q666.84-3.20 669.60-3.20L669.60-3.20Q672.64-3.20 674.40-5.04Q676.16-6.88 676.16-10.24L676.16-10.24L676.16-21.20Z M699.84-21.40Q703.88-21.40 706.26-19.06Q708.64-16.72 708.64-12.20L708.64-12.20L708.64 0L704.80 0L704.80-11.76Q704.80-14.84 703.32-16.40Q701.84-17.96 699.08-17.96L699.08-17.96Q695.96-17.96 694.16-16.14Q692.36-14.32 692.36-10.92L692.36-10.92L692.36 0L688.52 0L688.52-21.20L692.20-21.20L692.20-18Q693.36-19.64 695.34-20.52Q697.32-21.40 699.84-21.40L699.84-21.40Z M736.24-10.48Q736.24-10.04 736.16-9.32L736.16-9.32L718.96-9.32Q719.32-6.52 721.42-4.82Q723.52-3.12 726.64-3.12L726.64-3.12Q730.44-3.12 732.76-5.68L732.76-5.68L734.88-3.20Q733.44-1.52 731.30-0.64Q729.16 0.24 726.52 0.24L726.52 0.24Q723.16 0.24 720.56-1.14Q717.96-2.52 716.54-5Q715.12-7.48 715.12-10.60L715.12-10.60Q715.12-13.68 716.50-16.16Q717.88-18.64 720.30-20.02Q722.72-21.40 725.76-21.40L725.76-21.40Q728.80-21.40 731.18-20.02Q733.56-18.64 734.90-16.16Q736.24-13.68 736.24-10.48L736.24-10.48ZM725.76-18.16Q723.00-18.16 721.14-16.48Q719.28-14.80 718.96-12.08L718.96-12.08L732.56-12.08Q732.24-14.76 730.38-16.46Q728.52-18.16 725.76-18.16L725.76-18.16Z M743.68-15.92Q742.56-15.92 741.76-16.70Q740.96-17.48 740.96-18.68L740.96-18.68Q740.96-19.84 741.76-20.62Q742.56-21.40 743.68-21.40L743.68-21.40Q744.80-21.40 745.56-20.64Q746.32-19.88 746.32-18.68L746.32-18.68Q746.32-17.48 745.54-16.70Q744.76-15.92 743.68-15.92L743.68-15.92ZM743.68 0.24Q742.56 0.24 741.76-0.54Q740.96-1.32 740.96-2.52L740.96-2.52Q740.96-3.68 741.76-4.46Q742.56-5.24 743.68-5.24L743.68-5.24Q744.80-5.24 745.56-4.48Q746.32-3.72 746.32-2.52L746.32-2.52Q746.32-1.32 745.54-0.54Q744.76 0.24 743.68 0.24L743.68 0.24Z M771.12 0L771.12-24.52L761.52-24.52L761.52-28L784.68-28L784.68-24.52L775.08-24.52L775.08 0L771.12 0Z M792.84-17.64Q793.84-19.48 795.80-20.44Q797.76-21.40 800.56-21.40L800.56-21.40L800.56-17.68Q800.24-17.72 799.68-17.72L799.68-17.72Q796.56-17.72 794.78-15.86Q793.00-14 793.00-10.56L793.00-10.56L793.00 0L789.16 0L789.16-21.20L792.84-21.20L792.84-17.64Z M814.16-21.40Q818.56-21.40 820.90-19.24Q823.24-17.08 823.24-12.80L823.24-12.80L823.24 0L819.60 0L819.60-2.80Q818.64-1.32 816.86-0.54Q815.08 0.24 812.64 0.24L812.64 0.24Q809.08 0.24 806.94-1.48Q804.80-3.20 804.80-6L804.80-6Q804.80-8.80 806.84-10.50Q808.88-12.20 813.32-12.20L813.32-12.20L819.40-12.20L819.40-12.96Q819.40-15.44 817.96-16.76Q816.52-18.08 813.72-18.08L813.72-18.08Q811.84-18.08 810.04-17.46Q808.24-16.84 807.00-15.80L807.00-15.80L805.40-18.68Q807.04-20 809.32-20.70Q811.60-21.40 814.16-21.40L814.16-21.40ZM813.28-2.72Q815.48-2.72 817.08-3.70Q818.68-4.68 819.40-6.48L819.40-6.48L819.40-9.44L813.48-9.44Q808.60-9.44 808.60-6.16L808.60-6.16Q808.60-4.56 809.84-3.64Q811.08-2.72 813.28-2.72L813.28-2.72Z M847.84-29.68L851.68-29.68L851.68 0L848.00 0L848.00-3.36Q846.72-1.60 844.76-0.68Q842.80 0.24 840.44 0.24L840.44 0.24Q837.36 0.24 834.92-1.12Q832.48-2.48 831.10-4.94Q829.72-7.40 829.72-10.60L829.72-10.60Q829.72-13.80 831.10-16.24Q832.48-18.68 834.92-20.04Q837.36-21.40 840.44-21.40L840.44-21.40Q842.72-21.40 844.64-20.54Q846.56-19.68 847.84-18L847.84-18L847.84-29.68ZM840.76-3.12Q842.76-3.12 844.40-4.06Q846.04-5 846.96-6.70Q847.88-8.40 847.88-10.60L847.88-10.60Q847.88-12.80 846.96-14.50Q846.04-16.20 844.40-17.12Q842.76-18.04 840.76-18.04L840.76-18.04Q838.72-18.04 837.10-17.12Q835.48-16.20 834.54-14.50Q833.60-12.80 833.60-10.60L833.60-10.60Q833.60-8.40 834.54-6.70Q835.48-5 837.10-4.06Q838.72-3.12 840.76-3.12L840.76-3.12Z M879.32-10.48Q879.32-10.04 879.24-9.32L879.24-9.32L862.04-9.32Q862.40-6.52 864.50-4.82Q866.60-3.12 869.72-3.12L869.72-3.12Q873.52-3.12 875.84-5.68L875.84-5.68L877.96-3.20Q876.52-1.52 874.38-0.64Q872.24 0.24 869.60 0.24L869.60 0.24Q866.24 0.24 863.64-1.14Q861.04-2.52 859.62-5Q858.20-7.48 858.20-10.60L858.20-10.60Q858.20-13.68 859.58-16.16Q860.96-18.64 863.38-20.02Q865.80-21.40 868.84-21.40L868.84-21.40Q871.88-21.40 874.26-20.02Q876.64-18.64 877.98-16.16Q879.32-13.68 879.32-10.48L879.32-10.48ZM868.84-18.16Q866.08-18.16 864.22-16.48Q862.36-14.80 862.04-12.08L862.04-12.08L875.64-12.08Q875.32-14.76 873.46-16.46Q871.60-18.16 868.84-18.16L868.84-18.16Z M910.88 0.32Q906.68 0.32 903.30-1.54Q899.92-3.40 898.00-6.66Q896.08-9.92 896.08-14L896.08-14Q896.08-18.08 898.00-21.34Q899.92-24.60 903.32-26.46Q906.72-28.32 910.92-28.32L910.92-28.32Q914.20-28.32 916.92-27.22Q919.64-26.12 921.56-23.96L921.56-23.96L918.96-21.44Q915.80-24.76 911.08-24.76L911.08-24.76Q907.96-24.76 905.44-23.36Q902.92-21.96 901.50-19.50Q900.08-17.04 900.08-14L900.08-14Q900.08-10.96 901.50-8.50Q902.92-6.04 905.44-4.64Q907.96-3.24 911.08-3.24L911.08-3.24Q915.76-3.24 918.96-6.60L918.96-6.60L921.56-4.08Q919.64-1.92 916.90-0.80Q914.16 0.32 910.88 0.32L910.88 0.32Z M931.60-17.64Q932.60-19.48 934.56-20.44Q936.52-21.40 939.32-21.40L939.32-21.40L939.32-17.68Q939.00-17.72 938.44-17.72L938.44-17.72Q935.32-17.72 933.54-15.86Q931.76-14 931.76-10.56L931.76-10.56L931.76 0L927.92 0L927.92-21.20L931.60-21.20L931.60-17.64Z M961.12-21.20L964.88-21.20L954.60 2.12Q953.24 5.36 951.42 6.68Q949.60 8 947.04 8L947.04 8Q945.48 8 944.02 7.50Q942.56 7 941.60 6.04L941.60 6.04L943.24 3.16Q944.88 4.72 947.04 4.72L947.04 4.72Q948.44 4.72 949.38 3.98Q950.32 3.24 951.08 1.44L951.08 1.44L951.76-0.04L942.40-21.20L946.40-21.20L953.80-4.24L961.12-21.20Z M980.92-21.40Q984.00-21.40 986.44-20.04Q988.88-18.68 990.26-16.24Q991.64-13.80 991.64-10.60L991.64-10.60Q991.64-7.40 990.26-4.94Q988.88-2.48 986.44-1.12Q984.00 0.24 980.92 0.24L980.92 0.24Q978.64 0.24 976.74-0.64Q974.84-1.52 973.52-3.20L973.52-3.20L973.52 7.76L969.68 7.76L969.68-21.20L973.36-21.20L973.36-17.84Q974.64-19.60 976.60-20.50Q978.56-21.40 980.92-21.40L980.92-21.40ZM980.60-3.12Q982.64-3.12 984.26-4.06Q985.88-5 986.82-6.70Q987.76-8.40 987.76-10.60L987.76-10.60Q987.76-12.80 986.82-14.50Q985.88-16.20 984.26-17.12Q982.64-18.04 980.60-18.04L980.60-18.04Q978.60-18.04 976.98-17.10Q975.36-16.16 974.42-14.48Q973.48-12.80 973.48-10.60L973.48-10.60Q973.48-8.40 974.40-6.70Q975.32-5 976.96-4.06Q978.60-3.12 980.60-3.12L980.60-3.12Z M1008.88-4L1010.08-1.24Q1009.24-0.52 1008.00-0.14Q1006.76 0.24 1005.44 0.24L1005.44 0.24Q1002.24 0.24 1000.48-1.48Q998.72-3.20 998.72-6.40L998.72-6.40L998.72-18.04L995.12-18.04L995.12-21.20L998.72-21.20L998.72-25.84L1002.56-25.84L1002.56-21.20L1008.64-21.20L1008.64-18.04L1002.56-18.04L1002.56-6.56Q1002.56-4.84 1003.42-3.92Q1004.28-3 1005.88-3L1005.88-3Q1007.64-3 1008.88-4L1008.88-4Z M1024.28 0.24Q1021.12 0.24 1018.60-1.16Q1016.08-2.56 1014.66-5.02Q1013.24-7.48 1013.24-10.60L1013.24-10.60Q1013.24-13.72 1014.66-16.18Q1016.08-18.64 1018.60-20.02Q1021.12-21.40 1024.28-21.40L1024.28-21.40Q1027.44-21.40 1029.94-20.02Q1032.44-18.64 1033.86-16.18Q1035.28-13.72 1035.28-10.60L1035.28-10.60Q1035.28-7.48 1033.86-5.02Q1032.44-2.56 1029.94-1.16Q1027.44 0.24 1024.28 0.24L1024.28 0.24ZM1024.28-3.12Q1026.32-3.12 1027.94-4.06Q1029.56-5 1030.48-6.70Q1031.40-8.40 1031.40-10.60L1031.40-10.60Q1031.40-12.80 1030.48-14.50Q1029.56-16.20 1027.94-17.12Q1026.32-18.04 1024.28-18.04L1024.28-18.04Q1022.24-18.04 1020.62-17.12Q1019.00-16.20 1018.06-14.50Q1017.12-12.80 1017.12-10.60L1017.12-10.60Q1017.12-8.40 1018.06-6.70Q1019.00-5 1020.62-4.06Q1022.24-3.12 1024.28-3.12L1024.28-3.12Z M1040.32-17.20L1040.08-28L1043.44-28L1043.16-17.20L1040.32-17.20ZM1047.56-17.20L1047.32-28L1050.68-28L1050.40-17.20L1047.56-17.20Z"/></g>
</svg>
</g></svg></svg>