<svg version="1.1" preserveAspectRatio="none" xmlns="http://www.w3.org/2000/svg" width="500" height="500" viewBox="0 0 500 500"><rect width="100%" height="100%" fill="#212D94" fill-opacity="1"/><svg viewBox="-107.5472 44.296 629.7689 177" width="333" height="93.59147458694768" x="83.5px" y="203.2043px" xmlns="http://www.w3.org/2000/svg" xmlns:xlink="http://www.w3.org/1999/xlink" preserveAspectRatio="none"><defs></defs><style>.a60p5ZquTEfillColor {fill:#F1F1F1;fill-opacity:0;}.ahs7pIl34ofillColor {fill:#0A0A0A;fill-opacity:0.1;}.background {fill:#212D94;fill-opacity:1;}.companyName {fill:#F1F1F1;fill-opacity:1;}.icon3-str {stroke:#0A0A0A;stroke-opacity:1;}.shapeStroke-str {stroke:#0A0A0A;stroke-opacity:1;}.text-str {stroke:#F1F1F1;stroke-opacity:1;}</style><g opacity="1" transform="rotate(0 -107.5472 44.296)">
<svg width="314.8845" height="177" x="-107.5472" y="44.296" version="1.1" preserveAspectRatio="none" viewBox="0 0 314.8845 177">
  <defs><rect x="11.0625" y="11.0625" width="292.7595" height="154.875" rx="0px" ry="0px" id="id-60p5ZquTE1690882885653"></rect></defs><use class="a60p5ZquTEfillColor text-str" style="stroke-width:22.125;" xlink:href="#id-60p5ZquTE1690882885653"></use>
</svg>
</g><g opacity="1" transform="rotate(0 207.3372 44.296)">
<svg width="314.8845" height="177" x="207.3372" y="44.296" version="1.1" preserveAspectRatio="none" viewBox="0 0 314.8845 177">
  <defs><rect x="11.0625" y="11.0625" width="292.7595" height="154.875" rx="0px" ry="0px" id="id-hs7pIl34o1690882885653"></rect></defs><use class="ahs7pIl34ofillColor icon3-str" style="stroke-width:22.125;" xlink:href="#id-hs7pIl34o1690882885653"></use>
</svg>
</g><g opacity="1" transform="rotate(0 -97.5472 54.296)">
<svg width="609.7689" height="157" x="-97.5472" y="54.296" version="1.1" preserveAspectRatio="none" viewBox="0 0 609.7689 157">
  <defs><rect x="0" y="0" width="609.7689" height="157" rx="0px" ry="0px" id="id-BO9lbzKc31690882885653"></rect></defs><use class="background shapeStroke-str" style="stroke-width:0;" xlink:href="#id-BO9lbzKc31690882885653"></use>
</svg>
</g><g opacity="1" transform="rotate(0 -57.5472 146.296)">
<svg width="529.7689" height="15" x="-57.5472" y="146.296" version="1.1" preserveAspectRatio="none" viewBox="1.96 -31.48 1397.12 39.56">
  <g transform="matrix(1 0 0 1 0 0)" class="companyName"><path id="id-6izo4zJp47" d="M2.36-16.64L1.96-28L7.28-28L6.84-16.64L2.36-16.64ZM10.60-16.64L10.20-28L15.52-28L15.08-16.64L10.60-16.64Z M35.24-5.20L50.48-5.20L50.48 0L28.80 0L28.80-28L49.96-28L49.96-22.80L35.24-22.80L35.24-16.72L48.24-16.72L48.24-11.68L35.24-11.68L35.24-5.20Z M90.76-21.84Q94.80-21.84 97.18-19.46Q99.56-17.08 99.56-12.32L99.56-12.32L99.56 0L93.32 0L93.32-11.36Q93.32-13.92 92.26-15.18Q91.20-16.44 89.24-16.44L89.24-16.44Q87.04-16.44 85.76-15.02Q84.48-13.60 84.48-10.80L84.48-10.80L84.48 0L78.24 0L78.24-11.36Q78.24-16.44 74.16-16.44L74.16-16.44Q72-16.44 70.72-15.02Q69.44-13.60 69.44-10.80L69.44-10.80L69.44 0L63.20 0L63.20-21.52L69.16-21.52L69.16-19.04Q70.36-20.40 72.10-21.12Q73.84-21.84 75.92-21.84L75.92-21.84Q78.20-21.84 80.04-20.94Q81.88-20.04 83-18.32L83-18.32Q84.32-20 86.34-20.92Q88.36-21.84 90.76-21.84L90.76-21.84Z M125.88-21.84Q128.88-21.84 131.34-20.46Q133.80-19.08 135.20-16.58Q136.60-14.08 136.60-10.76L136.60-10.76Q136.60-7.44 135.20-4.94Q133.80-2.44 131.34-1.06Q128.88 0.32 125.88 0.32L125.88 0.32Q121.76 0.32 119.40-2.28L119.40-2.28L119.40 7.76L113.16 7.76L113.16-21.52L119.12-21.52L119.12-19.04Q121.44-21.84 125.88-21.84L125.88-21.84ZM124.80-4.80Q127.20-4.80 128.74-6.42Q130.28-8.04 130.28-10.76L130.28-10.76Q130.28-13.48 128.74-15.10Q127.20-16.72 124.80-16.72L124.80-16.72Q122.40-16.72 120.86-15.10Q119.32-13.48 119.32-10.76L119.32-10.76Q119.32-8.04 120.86-6.42Q122.40-4.80 124.80-4.80L124.80-4.80Z M159 0.32Q155.60 0.32 152.90-1.10Q150.20-2.52 148.68-5.04Q147.16-7.56 147.16-10.76L147.16-10.76Q147.16-13.96 148.68-16.48Q150.20-19 152.90-20.42Q155.60-21.84 159-21.84L159-21.84Q162.40-21.84 165.08-20.42Q167.76-19 169.28-16.48Q170.80-13.96 170.80-10.76L170.80-10.76Q170.80-7.56 169.28-5.04Q167.76-2.52 165.08-1.10Q162.40 0.32 159 0.32L159 0.32ZM159-4.80Q161.40-4.80 162.94-6.42Q164.48-8.04 164.48-10.76L164.48-10.76Q164.48-13.48 162.94-15.10Q161.40-16.72 159-16.72L159-16.72Q156.60-16.72 155.04-15.10Q153.48-13.48 153.48-10.76L153.48-10.76Q153.48-8.04 155.04-6.42Q156.60-4.80 159-4.80L159-4.80Z M211.40-21.52L216.92-21.52L209.12 0L203.12 0L198.28-13.36L193.28 0L187.28 0L179.52-21.52L185.40-21.52L190.48-6.96L195.76-21.52L201.04-21.52L206.16-6.96L211.40-21.52Z M248.32-10.68Q248.32-10.56 248.20-9L248.20-9L231.92-9Q232.36-7 234-5.84Q235.64-4.68 238.08-4.68L238.08-4.68Q239.76-4.68 241.06-5.18Q242.36-5.68 243.48-6.76L243.48-6.76L246.80-3.16Q243.76 0.32 237.92 0.32L237.92 0.32Q234.28 0.32 231.48-1.10Q228.68-2.52 227.16-5.04Q225.64-7.56 225.64-10.76L225.64-10.76Q225.64-13.92 227.14-16.46Q228.64-19 231.26-20.42Q233.88-21.84 237.12-21.84L237.12-21.84Q240.28-21.84 242.84-20.48Q245.40-19.12 246.86-16.58Q248.32-14.04 248.32-10.68L248.32-10.68ZM237.16-17.12Q235.04-17.12 233.60-15.92Q232.16-14.72 231.84-12.64L231.84-12.64L242.44-12.64Q242.12-14.68 240.68-15.90Q239.24-17.12 237.16-17.12L237.16-17.12Z M266.44-18.68Q267.56-20.24 269.46-21.04Q271.36-21.84 273.84-21.84L273.84-21.84L273.84-16.08Q272.80-16.16 272.44-16.16L272.44-16.16Q269.76-16.16 268.24-14.66Q266.72-13.16 266.72-10.16L266.72-10.16L266.72 0L260.48 0L260.48-21.52L266.44-21.52L266.44-18.68Z M285.56 0L285.56-21.52L291.80-21.52L291.80 0L285.56 0ZM288.68-24.52Q286.96-24.52 285.88-25.52Q284.80-26.52 284.80-28L284.80-28Q284.80-29.48 285.88-30.48Q286.96-31.48 288.68-31.48L288.68-31.48Q290.40-31.48 291.48-30.52Q292.56-29.56 292.56-28.12L292.56-28.12Q292.56-26.56 291.48-25.54Q290.40-24.52 288.68-24.52L288.68-24.52Z M318.68-21.84Q322.68-21.84 325.14-19.44Q327.60-17.04 327.60-12.32L327.60-12.32L327.60 0L321.36 0L321.36-11.36Q321.36-13.92 320.24-15.18Q319.12-16.44 317-16.44L317-16.44Q314.64-16.44 313.24-14.98Q311.84-13.52 311.84-10.64L311.84-10.64L311.84 0L305.60 0L305.60-21.52L311.56-21.52L311.56-19Q312.80-20.36 314.64-21.10Q316.48-21.84 318.68-21.84L318.68-21.84Z M357.76-21.52L363.68-21.52L363.68-3.60Q363.68 2.32 360.60 5.20Q357.52 8.08 351.60 8.08L351.60 8.08Q348.48 8.08 345.68 7.32Q342.88 6.56 341.04 5.12L341.04 5.12L343.52 0.64Q344.88 1.76 346.96 2.42Q349.04 3.08 351.12 3.08L351.12 3.08Q354.36 3.08 355.90 1.62Q357.44 0.16 357.44-2.80L357.44-2.80L357.44-3.72Q355-1.04 350.64-1.04L350.64-1.04Q347.68-1.04 345.22-2.34Q342.76-3.64 341.32-6Q339.88-8.36 339.88-11.44L339.88-11.44Q339.88-14.52 341.32-16.88Q342.76-19.24 345.22-20.54Q347.68-21.84 350.64-21.84L350.64-21.84Q355.32-21.84 357.76-18.76L357.76-18.76L357.76-21.52ZM351.88-6.16Q354.36-6.16 355.94-7.62Q357.52-9.08 357.52-11.44L357.52-11.44Q357.52-13.80 355.94-15.26Q354.36-16.72 351.88-16.72L351.88-16.72Q349.40-16.72 347.80-15.26Q346.20-13.80 346.20-11.44L346.20-11.44Q346.20-9.08 347.80-7.62Q349.40-6.16 351.88-6.16L351.88-6.16Z M421.56-28L410.68-9.92L410.68 0L404.20 0L404.20-10L393.36-28L400.24-28L407.72-15.56L415.20-28L421.56-28Z M439.68 0.32Q436.28 0.32 433.58-1.10Q430.88-2.52 429.36-5.04Q427.84-7.56 427.84-10.76L427.84-10.76Q427.84-13.96 429.36-16.48Q430.88-19 433.58-20.42Q436.28-21.84 439.68-21.84L439.68-21.84Q443.08-21.84 445.76-20.42Q448.44-19 449.96-16.48Q451.48-13.96 451.48-10.76L451.48-10.76Q451.48-7.56 449.96-5.04Q448.44-2.52 445.76-1.10Q443.08 0.32 439.68 0.32L439.68 0.32ZM439.68-4.80Q442.08-4.80 443.62-6.42Q445.16-8.04 445.16-10.76L445.16-10.76Q445.16-13.48 443.62-15.10Q442.08-16.72 439.68-16.72L439.68-16.72Q437.28-16.72 435.72-15.10Q434.16-13.48 434.16-10.76L434.16-10.76Q434.16-8.04 435.72-6.42Q437.28-4.80 439.68-4.80L439.68-4.80Z M479.08-21.52L485.32-21.52L485.32 0L479.40 0L479.40-2.56Q478.16-1.16 476.44-0.42Q474.72 0.32 472.72 0.32L472.72 0.32Q468.48 0.32 466.00-2.12Q463.52-4.56 463.52-9.36L463.52-9.36L463.52-21.52L469.76-21.52L469.76-10.28Q469.76-5.08 474.12-5.08L474.12-5.08Q476.36-5.08 477.72-6.54Q479.08-8 479.08-10.88L479.08-10.88L479.08-21.52Z M505.08-18.68Q506.20-20.24 508.10-21.04Q510.00-21.84 512.48-21.84L512.48-21.84L512.48-16.08Q511.44-16.16 511.08-16.16L511.08-16.16Q508.40-16.16 506.88-14.66Q505.36-13.16 505.36-10.16L505.36-10.16L505.36 0L499.12 0L499.12-21.52L505.08-21.52L505.08-18.68Z M544.12 0L544.12-28L556.84-28Q561.40-28 564.90-26.26Q568.40-24.52 570.34-21.36Q572.28-18.20 572.28-14L572.28-14Q572.28-9.80 570.34-6.64Q568.40-3.48 564.90-1.74Q561.40 0 556.84 0L556.84 0L544.12 0ZM550.60-5.32L556.52-5.32Q560.72-5.32 563.22-7.66Q565.72-10 565.72-14L565.72-14Q565.72-18 563.22-20.34Q560.72-22.68 556.52-22.68L556.52-22.68L550.60-22.68L550.60-5.32Z M584.72 0L584.72-21.52L590.96-21.52L590.96 0L584.72 0ZM587.84-24.52Q586.12-24.52 585.04-25.52Q583.96-26.52 583.96-28L583.96-28Q583.96-29.48 585.04-30.48Q586.12-31.48 587.84-31.48L587.84-31.48Q589.56-31.48 590.64-30.52Q591.72-29.56 591.72-28.12L591.72-28.12Q591.72-26.56 590.64-25.54Q589.56-24.52 587.84-24.52L587.84-24.52Z M621.04-21.52L626.96-21.52L626.96-3.60Q626.96 2.32 623.88 5.20Q620.80 8.08 614.88 8.08L614.88 8.08Q611.76 8.08 608.96 7.32Q606.16 6.56 604.32 5.12L604.32 5.12L606.80 0.64Q608.16 1.76 610.24 2.42Q612.32 3.08 614.40 3.08L614.40 3.08Q617.64 3.08 619.18 1.62Q620.72 0.16 620.72-2.80L620.72-2.80L620.72-3.72Q618.28-1.04 613.92-1.04L613.92-1.04Q610.96-1.04 608.50-2.34Q606.04-3.64 604.60-6Q603.16-8.36 603.16-11.44L603.16-11.44Q603.16-14.52 604.60-16.88Q606.04-19.24 608.50-20.54Q610.96-21.84 613.92-21.84L613.92-21.84Q618.60-21.84 621.04-18.76L621.04-18.76L621.04-21.52ZM615.16-6.16Q617.64-6.16 619.22-7.62Q620.80-9.08 620.80-11.44L620.80-11.44Q620.80-13.80 619.22-15.26Q617.64-16.72 615.16-16.72L615.16-16.72Q612.68-16.72 611.08-15.26Q609.48-13.80 609.48-11.44L609.48-11.44Q609.48-9.08 611.08-7.62Q612.68-6.16 615.16-6.16L615.16-6.16Z M640.76 0L640.76-21.52L647-21.52L647 0L640.76 0ZM643.88-24.52Q642.16-24.52 641.08-25.52Q640-26.52 640-28L640-28Q640-29.48 641.08-30.48Q642.16-31.48 643.88-31.48L643.88-31.48Q645.60-31.48 646.68-30.52Q647.76-29.56 647.76-28.12L647.76-28.12Q647.76-26.56 646.68-25.54Q645.60-24.52 643.88-24.52L643.88-24.52Z M673-5.44L674.68-1.04Q673.76-0.36 672.42-0.02Q671.08 0.32 669.60 0.32L669.60 0.32Q665.76 0.32 663.66-1.64Q661.56-3.60 661.56-7.40L661.56-7.40L661.56-16.24L658.24-16.24L658.24-21.04L661.56-21.04L661.56-26.28L667.80-26.28L667.80-21.04L673.16-21.04L673.16-16.24L667.80-16.24L667.80-7.48Q667.80-6.12 668.50-5.38Q669.20-4.64 670.48-4.64L670.48-4.64Q671.96-4.64 673-5.44L673-5.44Z M694.88-21.84Q699.88-21.84 702.56-19.46Q705.24-17.08 705.24-12.28L705.24-12.28L705.24 0L699.40 0L699.40-2.68Q697.64 0.32 692.84 0.32L692.84 0.32Q690.36 0.32 688.54-0.52Q686.72-1.36 685.76-2.84Q684.80-4.32 684.80-6.20L684.80-6.20Q684.80-9.20 687.06-10.92Q689.32-12.64 694.04-12.64L694.04-12.64L699.00-12.64Q699.00-14.68 697.76-15.78Q696.52-16.88 694.04-16.88L694.04-16.88Q692.32-16.88 690.66-16.34Q689.00-15.80 687.84-14.88L687.84-14.88L685.60-19.24Q687.36-20.48 689.82-21.16Q692.28-21.84 694.88-21.84L694.88-21.84ZM694.40-3.88Q696.00-3.88 697.24-4.62Q698.48-5.36 699.00-6.80L699.00-6.80L699.00-9L694.72-9Q690.88-9 690.88-6.48L690.88-6.48Q690.88-5.28 691.82-4.58Q692.76-3.88 694.40-3.88L694.40-3.88Z M718.88 0L718.88-29.68L725.12-29.68L725.12 0L718.88 0Z M779.84-22.80L765.16-22.80L765.16-15.40L778.12-15.40L778.12-10.20L765.16-10.20L765.16 0L758.68 0L758.68-28L779.84-28L779.84-22.80Z M801.48 0.32Q798.08 0.32 795.38-1.10Q792.68-2.52 791.16-5.04Q789.64-7.56 789.64-10.76L789.64-10.76Q789.64-13.96 791.16-16.48Q792.68-19 795.38-20.42Q798.08-21.84 801.48-21.84L801.48-21.84Q804.88-21.84 807.56-20.42Q810.24-19 811.76-16.48Q813.28-13.96 813.28-10.76L813.28-10.76Q813.28-7.56 811.76-5.04Q810.24-2.52 807.56-1.10Q804.88 0.32 801.48 0.32L801.48 0.32ZM801.48-4.80Q803.88-4.80 805.42-6.42Q806.96-8.04 806.96-10.76L806.96-10.76Q806.96-13.48 805.42-15.10Q803.88-16.72 801.48-16.72L801.48-16.72Q799.08-16.72 797.52-15.10Q795.96-13.48 795.96-10.76L795.96-10.76Q795.96-8.04 797.52-6.42Q799.08-4.80 801.48-4.80L801.48-4.80Z M831.40-18.68Q832.52-20.24 834.42-21.04Q836.32-21.84 838.80-21.84L838.80-21.84L838.80-16.08Q837.76-16.16 837.40-16.16L837.40-16.16Q834.72-16.16 833.20-14.66Q831.68-13.16 831.68-10.16L831.68-10.16L831.68 0L825.44 0L825.44-21.52L831.40-21.52L831.40-18.68Z M863.48-5.44L865.16-1.04Q864.24-0.36 862.90-0.02Q861.56 0.32 860.08 0.32L860.08 0.32Q856.24 0.32 854.14-1.64Q852.04-3.60 852.04-7.40L852.04-7.40L852.04-16.24L848.72-16.24L848.72-21.04L852.04-21.04L852.04-26.28L858.28-26.28L858.28-21.04L863.64-21.04L863.64-16.24L858.28-16.24L858.28-7.48Q858.28-6.12 858.98-5.38Q859.68-4.64 860.96-4.64L860.96-4.64Q862.44-4.64 863.48-5.44L863.48-5.44Z M892.12-21.52L898.36-21.52L898.36 0L892.44 0L892.44-2.56Q891.20-1.16 889.48-0.42Q887.76 0.32 885.76 0.32L885.76 0.32Q881.52 0.32 879.04-2.12Q876.56-4.56 876.56-9.36L876.56-9.36L876.56-21.52L882.80-21.52L882.80-10.28Q882.80-5.08 887.16-5.08L887.16-5.08Q889.40-5.08 890.76-6.54Q892.12-8 892.12-10.88L892.12-10.88L892.12-21.52Z M925.24-21.84Q929.24-21.84 931.70-19.44Q934.16-17.04 934.16-12.32L934.16-12.32L934.16 0L927.92 0L927.92-11.36Q927.92-13.92 926.80-15.18Q925.68-16.44 923.56-16.44L923.56-16.44Q921.20-16.44 919.80-14.98Q918.40-13.52 918.40-10.64L918.40-10.64L918.40 0L912.16 0L912.16-21.52L918.12-21.52L918.12-19Q919.36-20.36 921.20-21.10Q923.04-21.84 925.24-21.84L925.24-21.84Z M969.12-10.68Q969.12-10.56 969-9L969-9L952.72-9Q953.16-7 954.80-5.84Q956.44-4.68 958.88-4.68L958.88-4.68Q960.56-4.68 961.86-5.18Q963.16-5.68 964.28-6.76L964.28-6.76L967.60-3.16Q964.56 0.32 958.72 0.32L958.72 0.32Q955.08 0.32 952.28-1.10Q949.48-2.52 947.96-5.04Q946.44-7.56 946.44-10.76L946.44-10.76Q946.44-13.92 947.94-16.46Q949.44-19 952.06-20.42Q954.68-21.84 957.92-21.84L957.92-21.84Q961.08-21.84 963.64-20.48Q966.20-19.12 967.66-16.58Q969.12-14.04 969.12-10.68L969.12-10.68ZM957.96-17.12Q955.84-17.12 954.40-15.92Q952.96-14.72 952.64-12.64L952.64-12.64L963.24-12.64Q962.92-14.68 961.48-15.90Q960.04-17.12 957.96-17.12L957.96-17.12Z M983.64-14.04Q982-14.04 980.88-15.16Q979.76-16.28 979.76-17.96L979.76-17.96Q979.76-19.68 980.88-20.74Q982-21.80 983.64-21.80L983.64-21.80Q985.28-21.80 986.40-20.74Q987.52-19.68 987.52-17.96L987.52-17.96Q987.52-16.28 986.40-15.16Q985.28-14.04 983.64-14.04L983.64-14.04ZM983.64 0.32Q982 0.32 980.88-0.80Q979.76-1.92 979.76-3.60L979.76-3.60Q979.76-5.32 980.88-6.38Q982-7.44 983.64-7.44L983.64-7.44Q985.28-7.44 986.40-6.38Q987.52-5.32 987.52-3.60L987.52-3.60Q987.52-1.92 986.40-0.80Q985.28 0.32 983.64 0.32L983.64 0.32Z M1025.32 0L1025.32-22.72L1016.36-22.72L1016.36-28L1040.76-28L1040.76-22.72L1031.80-22.72L1031.80 0L1025.32 0Z M1057.28-18.68Q1058.40-20.24 1060.30-21.04Q1062.20-21.84 1064.68-21.84L1064.68-21.84L1064.68-16.08Q1063.64-16.16 1063.28-16.16L1063.28-16.16Q1060.60-16.16 1059.08-14.66Q1057.56-13.16 1057.56-10.16L1057.56-10.16L1057.56 0L1051.32 0L1051.32-21.52L1057.28-21.52L1057.28-18.68Z M1084.96-21.84Q1089.96-21.84 1092.64-19.46Q1095.32-17.08 1095.32-12.28L1095.32-12.28L1095.32 0L1089.48 0L1089.48-2.68Q1087.72 0.32 1082.92 0.32L1082.92 0.32Q1080.44 0.32 1078.62-0.52Q1076.80-1.36 1075.84-2.84Q1074.88-4.32 1074.88-6.20L1074.88-6.20Q1074.88-9.20 1077.14-10.92Q1079.40-12.64 1084.12-12.64L1084.12-12.64L1089.08-12.64Q1089.08-14.68 1087.84-15.78Q1086.60-16.88 1084.12-16.88L1084.12-16.88Q1082.40-16.88 1080.74-16.34Q1079.08-15.80 1077.92-14.88L1077.92-14.88L1075.68-19.24Q1077.44-20.48 1079.90-21.16Q1082.36-21.84 1084.96-21.84L1084.96-21.84ZM1084.48-3.88Q1086.08-3.88 1087.32-4.62Q1088.56-5.36 1089.08-6.80L1089.08-6.80L1089.08-9L1084.80-9Q1080.96-9 1080.96-6.48L1080.96-6.48Q1080.96-5.28 1081.90-4.58Q1082.84-3.88 1084.48-3.88L1084.48-3.88Z M1124.88-29.68L1131.12-29.68L1131.12 0L1125.16 0L1125.16-2.48Q1122.84 0.32 1118.44 0.32L1118.44 0.32Q1115.40 0.32 1112.94-1.04Q1110.48-2.40 1109.08-4.92Q1107.68-7.44 1107.68-10.76L1107.68-10.76Q1107.68-14.08 1109.08-16.60Q1110.48-19.12 1112.94-20.48Q1115.40-21.84 1118.44-21.84L1118.44-21.84Q1122.56-21.84 1124.88-19.24L1124.88-19.24L1124.88-29.68ZM1119.52-4.80Q1121.88-4.80 1123.44-6.42Q1125.00-8.04 1125.00-10.76L1125.00-10.76Q1125.00-13.48 1123.44-15.10Q1121.88-16.72 1119.52-16.72L1119.52-16.72Q1117.12-16.72 1115.56-15.10Q1114.00-13.48 1114.00-10.76L1114.00-10.76Q1114.00-8.04 1115.56-6.42Q1117.12-4.80 1119.52-4.80L1119.52-4.80Z M1165.96-10.68Q1165.96-10.56 1165.84-9L1165.84-9L1149.56-9Q1150.00-7 1151.64-5.84Q1153.28-4.68 1155.72-4.68L1155.72-4.68Q1157.40-4.68 1158.70-5.18Q1160.00-5.68 1161.12-6.76L1161.12-6.76L1164.44-3.16Q1161.40 0.32 1155.56 0.32L1155.56 0.32Q1151.92 0.32 1149.12-1.10Q1146.32-2.52 1144.80-5.04Q1143.28-7.56 1143.28-10.76L1143.28-10.76Q1143.28-13.92 1144.78-16.46Q1146.28-19 1148.90-20.42Q1151.52-21.84 1154.76-21.84L1154.76-21.84Q1157.92-21.84 1160.48-20.48Q1163.04-19.12 1164.50-16.58Q1165.96-14.04 1165.96-10.68L1165.96-10.68ZM1154.80-17.12Q1152.68-17.12 1151.24-15.92Q1149.80-14.72 1149.48-12.64L1149.48-12.64L1160.08-12.64Q1159.76-14.68 1158.32-15.90Q1156.88-17.12 1154.80-17.12L1154.80-17.12Z M1211.28 0.48Q1207.00 0.48 1203.54-1.38Q1200.08-3.24 1198.10-6.54Q1196.12-9.84 1196.12-14L1196.12-14Q1196.12-18.16 1198.10-21.46Q1200.08-24.76 1203.54-26.62Q1207.00-28.48 1211.32-28.48L1211.32-28.48Q1214.96-28.48 1217.90-27.20Q1220.84-25.92 1222.84-23.52L1222.84-23.52L1218.68-19.68Q1215.84-22.96 1211.64-22.96L1211.64-22.96Q1209.04-22.96 1207.00-21.82Q1204.96-20.68 1203.82-18.64Q1202.68-16.60 1202.68-14L1202.68-14Q1202.68-11.40 1203.82-9.36Q1204.96-7.32 1207.00-6.18Q1209.04-5.04 1211.64-5.04L1211.64-5.04Q1215.84-5.04 1218.68-8.36L1218.68-8.36L1222.84-4.52Q1220.84-2.08 1217.88-0.80Q1214.92 0.48 1211.28 0.48L1211.28 0.48Z M1240.72-18.68Q1241.84-20.24 1243.74-21.04Q1245.64-21.84 1248.12-21.84L1248.12-21.84L1248.12-16.08Q1247.08-16.16 1246.72-16.16L1246.72-16.16Q1244.04-16.16 1242.52-14.66Q1241-13.16 1241-10.16L1241-10.16L1241 0L1234.76 0L1234.76-21.52L1240.72-21.52L1240.72-18.68Z M1275.96-21.52L1281.96-21.52L1272.24 1.32Q1270.76 5.04 1268.58 6.56Q1266.40 8.08 1263.32 8.08L1263.32 8.08Q1261.64 8.08 1260 7.56Q1258.36 7.04 1257.32 6.12L1257.32 6.12L1259.60 1.68Q1260.32 2.32 1261.26 2.68Q1262.20 3.04 1263.12 3.04L1263.12 3.04Q1264.40 3.04 1265.20 2.42Q1266 1.80 1266.64 0.36L1266.64 0.36L1266.72 0.16L1257.40-21.52L1263.84-21.52L1269.88-6.92L1275.96-21.52Z M1305.24-21.84Q1308.24-21.84 1310.70-20.46Q1313.16-19.08 1314.56-16.58Q1315.96-14.08 1315.96-10.76L1315.96-10.76Q1315.96-7.44 1314.56-4.94Q1313.16-2.44 1310.70-1.06Q1308.24 0.32 1305.24 0.32L1305.24 0.32Q1301.12 0.32 1298.76-2.28L1298.76-2.28L1298.76 7.76L1292.52 7.76L1292.52-21.52L1298.48-21.52L1298.48-19.04Q1300.80-21.84 1305.24-21.84L1305.24-21.84ZM1304.16-4.80Q1306.56-4.80 1308.10-6.42Q1309.64-8.04 1309.64-10.76L1309.64-10.76Q1309.64-13.48 1308.10-15.10Q1306.56-16.72 1304.16-16.72L1304.16-16.72Q1301.76-16.72 1300.22-15.10Q1298.68-13.48 1298.68-10.76L1298.68-10.76Q1298.68-8.04 1300.22-6.42Q1301.76-4.80 1304.16-4.80L1304.16-4.80Z M1340.32-5.44L1342-1.04Q1341.08-0.36 1339.74-0.02Q1338.40 0.32 1336.92 0.32L1336.92 0.32Q1333.08 0.32 1330.98-1.64Q1328.88-3.60 1328.88-7.40L1328.88-7.40L1328.88-16.24L1325.56-16.24L1325.56-21.04L1328.88-21.04L1328.88-26.28L1335.12-26.28L1335.12-21.04L1340.48-21.04L1340.48-16.24L1335.12-16.24L1335.12-7.48Q1335.12-6.12 1335.82-5.38Q1336.52-4.64 1337.80-4.64L1337.80-4.64Q1339.28-4.64 1340.32-5.44L1340.32-5.44Z M1363.08 0.32Q1359.68 0.32 1356.98-1.10Q1354.28-2.52 1352.76-5.04Q1351.24-7.56 1351.24-10.76L1351.24-10.76Q1351.24-13.96 1352.76-16.48Q1354.28-19 1356.98-20.42Q1359.68-21.84 1363.08-21.84L1363.08-21.84Q1366.48-21.84 1369.16-20.42Q1371.84-19 1373.36-16.48Q1374.88-13.96 1374.88-10.76L1374.88-10.76Q1374.88-7.56 1373.36-5.04Q1371.84-2.52 1369.16-1.10Q1366.48 0.32 1363.08 0.32L1363.08 0.32ZM1363.08-4.80Q1365.48-4.80 1367.02-6.42Q1368.56-8.04 1368.56-10.76L1368.56-10.76Q1368.56-13.48 1367.02-15.10Q1365.48-16.72 1363.08-16.72L1363.08-16.72Q1360.68-16.72 1359.12-15.10Q1357.56-13.48 1357.56-10.76L1357.56-10.76Q1357.56-8.04 1359.12-6.42Q1360.68-4.80 1363.08-4.80L1363.08-4.80Z M1385.92-16.64L1385.52-28L1390.84-28L1390.40-16.64L1385.92-16.64ZM1394.16-16.64L1393.76-28L1399.08-28L1398.64-16.64L1394.16-16.64Z"/></g>
</svg>
</g><g opacity="1" transform="rotate(0 32.6 104.296)">
<svg width="349.4744" height="24" x="32.6" y="104.296" version="1.1" preserveAspectRatio="none" viewBox="1.68 -30.32 446.16 30.64">
  <g transform="matrix(1 0 0 1 0 0)" class="companyName"><path id="id-D6z1nYkh17" d="M19.28-23.20Q15.52-25.16 12.60-25.16L12.60-25.16Q10.44-25.16 9.18-24.20Q7.92-23.24 7.92-21.56L7.92-21.56Q7.92-19.92 9.50-18.82Q11.08-17.72 13.92-16.64L13.92-16.64Q16.08-15.88 17.62-14.90Q19.16-13.92 20.16-12.24Q21.16-10.56 21.16-8L21.16-8Q21.16-5.68 20-3.80Q18.84-1.92 16.64-0.80Q14.44 0.32 11.44 0.32L11.44 0.32Q8.80 0.32 6.24-0.50Q3.68-1.32 1.68-2.76L1.68-2.76L3.76-6.40Q5.24-5.28 7.26-4.54Q9.28-3.80 11-3.80L11-3.80Q13.12-3.80 14.72-4.82Q16.32-5.84 16.32-7.96L16.32-7.96Q16.32-9.64 14.98-10.76Q13.64-11.88 11.24-12.80L11.24-12.80Q8.76-13.72 7.12-14.62Q5.48-15.52 4.30-17.14Q3.12-18.76 3.12-21.20L3.12-21.20Q3.12-24.76 5.54-26.94Q7.96-29.12 11.92-29.28L11.92-29.28Q14.80-29.28 16.98-28.62Q19.16-27.96 21.04-26.76L21.04-26.76L19.28-23.20Z M46.92 0L44.24-6.84L33.64-6.84L30.84 0L26.24 0L39.12-30.32L39.40-30.32L52.28 0L46.92 0ZM35.28-10.84L42.68-10.84L39.04-20.04L35.28-10.84Z M54.84-29.12L74.32-29.12L74.32-24.64L66.80-24.64L66.80 0L62.16 0L62.16-24.64L54.84-24.64L54.84-29.12Z M79.32-14.52Q79.32-18.52 81.32-21.94Q83.32-25.36 86.74-27.40Q90.16-29.44 94.20-29.44L94.20-29.44Q98.20-29.44 101.62-27.40Q105.04-25.36 107.08-21.92Q109.12-18.48 109.12-14.52L109.12-14.52Q109.12-10.48 107.10-7.08Q105.08-3.68 101.64-1.68Q98.20 0.32 94.20 0.32L94.20 0.32Q90.16 0.32 86.74-1.66Q83.32-3.64 81.32-7.04Q79.32-10.44 79.32-14.52L79.32-14.52ZM84.12-14.52Q84.12-11.68 85.48-9.32Q86.84-6.96 89.18-5.56Q91.52-4.16 94.32-4.16L94.32-4.16Q97.08-4.16 99.36-5.54Q101.64-6.92 102.98-9.30Q104.32-11.68 104.32-14.52L104.32-14.52Q104.32-17.36 102.96-19.76Q101.60-22.16 99.28-23.56Q96.96-24.96 94.20-24.96L94.20-24.96Q91.40-24.96 89.10-23.56Q86.80-22.16 85.46-19.76Q84.12-17.36 84.12-14.52L84.12-14.52Z M132.60-23.20Q128.84-25.16 125.92-25.16L125.92-25.16Q123.76-25.16 122.50-24.20Q121.24-23.24 121.24-21.56L121.24-21.56Q121.24-19.92 122.82-18.82Q124.40-17.72 127.24-16.64L127.24-16.64Q129.40-15.88 130.94-14.90Q132.48-13.92 133.48-12.24Q134.48-10.56 134.48-8L134.48-8Q134.48-5.68 133.32-3.80Q132.16-1.92 129.96-0.80Q127.76 0.32 124.76 0.32L124.76 0.32Q122.12 0.32 119.56-0.50Q117.00-1.32 115.00-2.76L115.00-2.76L117.08-6.40Q118.56-5.28 120.58-4.54Q122.60-3.80 124.32-3.80L124.32-3.80Q126.44-3.80 128.04-4.82Q129.64-5.84 129.64-7.96L129.64-7.96Q129.64-9.64 128.30-10.76Q126.96-11.88 124.56-12.80L124.56-12.80Q122.08-13.72 120.44-14.62Q118.80-15.52 117.62-17.14Q116.44-18.76 116.44-21.20L116.44-21.20Q116.44-24.76 118.86-26.94Q121.28-29.12 125.24-29.28L125.24-29.28Q128.12-29.28 130.30-28.62Q132.48-27.96 134.36-26.76L134.36-26.76L132.60-23.20Z M166.28-29.12L166.28 0L161.60 0L161.60-12.40L147.28-12.40L147.28 0L142.60 0L142.60-29.12L147.28-29.12L147.28-16.84L161.60-16.84L161.60-29.12L166.28-29.12Z M176.28-29.12L180.96-29.12L180.96 0L176.28 0L176.28-29.12Z M203.68-29.12L223.16-29.12L223.16-24.64L215.64-24.64L215.64 0L211.00 0L211.00-24.64L203.68-24.64L203.68-29.12Z M252.40 0L247.00 0L240.44-10.12L239.96-10.12L235.76-10.12L235.76 0L231.08 0L231.08-29.12L239.28-29.12Q244.16-29.12 247.10-26.64Q250.04-24.16 250.04-19.76L250.04-19.76Q250.04-17.08 248.90-14.78Q247.76-12.48 245.32-11.24L245.32-11.24L252.40 0ZM235.76-24.64L235.76-14.60L239.92-14.60Q242.72-14.60 243.98-16.14Q245.24-17.68 245.24-19.60L245.24-19.60Q245.24-20.72 244.76-21.86Q244.28-23 243.12-23.82Q241.96-24.64 240.08-24.64L240.08-24.64L235.76-24.64Z M277.52 0L274.84-6.84L264.24-6.84L261.44 0L256.84 0L269.72-30.32L270.00-30.32L282.88 0L277.52 0ZM265.88-10.84L273.28-10.84L269.64-20.04L265.88-10.84Z M289.84 0L289.84-29.12L298.12-29.12Q303.60-29.12 307.18-26.96Q310.76-24.80 312.40-21.40Q314.04-18 314.04-14.16L314.04-14.16Q314.04-9.92 312.06-6.70Q310.08-3.48 306.76-1.74Q303.44 0 299.52 0L299.52 0L289.84 0ZM294.52-4.48L298.68-4.48Q301.80-4.48 304.18-5.64Q306.56-6.80 307.90-9.06Q309.24-11.32 309.24-14.48L309.24-14.48Q309.24-17.92 307.78-20.22Q306.32-22.52 304.06-23.60Q301.80-24.68 299.40-24.68L299.40-24.68L294.52-24.68L294.52-4.48Z M322.28-29.12L341.60-29.12L341.60-24.64L326.96-24.64L326.96-16.88L340-16.88L340-12.40L326.96-12.40L326.96-4.48L342.16-4.48L342.16 0L322.28 0L322.28-29.12Z M373.64-29.12Q378.60-29.12 381.40-26.64Q384.20-24.16 384.20-19.76L384.20-19.76Q384.20-17.24 383.20-15.06Q382.20-12.88 379.98-11.50Q377.76-10.12 374.28-10.12L374.28-10.12L370.08-10.12L370.08 0L365.40 0L365.40-29.12L373.64-29.12ZM374.28-14.60Q376.20-14.60 377.38-15.42Q378.56-16.24 379.06-17.42Q379.56-18.60 379.56-19.68L379.56-19.68Q379.56-21.52 378.38-23.08Q377.20-24.64 374.40-24.64L374.40-24.64L370.08-24.64L370.08-14.60L374.28-14.60Z M413.16 0L407.76 0L401.20-10.12L400.72-10.12L396.52-10.12L396.52 0L391.84 0L391.84-29.12L400.04-29.12Q404.92-29.12 407.86-26.64Q410.80-24.16 410.80-19.76L410.80-19.76Q410.80-17.08 409.66-14.78Q408.52-12.48 406.08-11.24L406.08-11.24L413.16 0ZM396.52-24.64L396.52-14.60L400.68-14.60Q403.48-14.60 404.74-16.14Q406.00-17.68 406.00-19.60L406.00-19.60Q406.00-20.72 405.52-21.86Q405.04-23 403.88-23.82Q402.72-24.64 400.84-24.64L400.84-24.64L396.52-24.64Z M418.04-14.52Q418.04-18.52 420.04-21.94Q422.04-25.36 425.46-27.40Q428.88-29.44 432.92-29.44L432.92-29.44Q436.92-29.44 440.34-27.40Q443.76-25.36 445.80-21.92Q447.84-18.48 447.84-14.52L447.84-14.52Q447.84-10.48 445.82-7.08Q443.80-3.68 440.36-1.68Q436.92 0.32 432.92 0.32L432.92 0.32Q428.88 0.32 425.46-1.66Q422.04-3.64 420.04-7.04Q418.04-10.44 418.04-14.52L418.04-14.52ZM422.84-14.52Q422.84-11.68 424.20-9.32Q425.56-6.96 427.90-5.56Q430.24-4.16 433.04-4.16L433.04-4.16Q435.80-4.16 438.08-5.54Q440.36-6.92 441.70-9.30Q443.04-11.68 443.04-14.52L443.04-14.52Q443.04-17.36 441.68-19.76Q440.32-22.16 438.00-23.56Q435.68-24.96 432.92-24.96L432.92-24.96Q430.12-24.96 427.82-23.56Q425.52-22.16 424.18-19.76Q422.84-17.36 422.84-14.52L422.84-14.52Z"/></g>
</svg>
</g></svg></svg>